# Blender v2.80 (sub 75) OBJ File: ''
# www.blender.org
mtllib RoadTile_Basic_Up_ground.mtl
o Ground.003_Plane.005
v 50.000114 -0.000000 122.727234
v -50.010384 -0.000082 122.727318
v -49.884335 -0.000102 150.000046
v 49.999886 30.000057 -122.727303
v 49.999851 30.000061 -150.000046
v -50.010647 30.000092 -149.999954
v 49.999908 30.000061 -95.454575
v -50.010612 30.000092 -122.727219
v 49.999931 28.307297 -68.181854
v -50.010590 30.000092 -95.454491
v 49.999966 23.949505 -40.909126
v -50.010567 28.307329 -68.181747
v -50.010532 23.949535 -40.909039
v -50.010509 18.007380 -13.636312
v 50.000011 11.561506 13.636324
v 49.999989 18.007347 -13.636404
v 50.000034 5.692654 40.909039
v -50.010487 11.561538 13.636415
v 50.000069 1.481452 68.181778
v -50.010464 5.692681 40.909138
v 50.000092 -0.000001 95.454506
v -50.010429 1.481483 68.181862
v -50.010406 -0.000062 95.454590
v 50.000149 0.000002 149.999954
vt 0.270766 0.105063
vt 0.011771 0.105031
vt 0.011987 0.035104
vt 0.270830 0.745261
vt 0.270940 0.815188
vt 0.011945 0.815156
vt 0.270720 0.675333
vt 0.011835 0.745229
vt 0.270662 0.604793
vt 0.011725 0.675302
vt 0.270687 0.533290
vt 0.011667 0.604762
vt 0.011692 0.533258
vt 0.011765 0.461182
vt 0.270849 0.388954
vt 0.270760 0.461213
vt 0.270920 0.316904
vt 0.011854 0.388923
vt 0.270940 0.245454
vt 0.011925 0.316873
vt 0.270875 0.174990
vt 0.011945 0.245422
vt 0.011881 0.174959
vt 0.270656 0.035135
vn -0.0000 1.0000 0.0000
vn 0.0000 0.9995 0.0310
vn 0.0000 0.9939 0.1100
vn 0.0000 0.9827 0.1854
vn 0.0000 0.9752 0.2215
vn 0.0000 0.9755 0.2202
vn 0.0000 0.9834 0.1816
vn 0.0000 0.9946 0.1035
vn -0.0000 0.9996 0.0271
usemtl Road.003
s 1
f 1/1/1 2/2/1 3/3/1
f 4/4/1 5/5/1 6/6/1
f 7/7/2 4/4/1 8/8/1
f 9/9/3 7/7/2 10/10/2
f 11/11/4 9/9/3 12/12/3
f 11/11/4 13/13/4 14/14/5
f 15/15/6 16/16/5 14/14/5
f 17/17/7 15/15/6 18/18/6
f 19/19/8 17/17/7 20/20/7
f 21/21/9 19/19/8 22/22/8
f 1/1/1 21/21/9 23/23/9
f 1/1/1 3/3/1 24/24/1
f 4/4/1 6/6/1 8/8/1
f 7/7/2 8/8/1 10/10/2
f 9/9/3 10/10/2 12/12/3
f 11/11/4 12/12/3 13/13/4
f 11/11/4 14/14/5 16/16/5
f 15/15/6 14/14/5 18/18/6
f 17/17/7 18/18/6 20/20/7
f 19/19/8 20/20/7 22/22/8
f 21/21/9 22/22/8 23/23/9
f 1/1/1 23/23/9 2/2/1
