# Blender v2.80 (sub 75) OBJ File: ''
# www.blender.org
mtllib RoadTile_Curve_L_Up_ground.mtl
o Rocks_LowPoly1_Cube.010
v 49.999954 -0.000040 122.727318
v -62.319866 -0.000122 122.727234
v -50.000011 -0.000151 149.999954
v -44.248928 30.000095 -122.727219
v -49.999989 30.000111 -149.999969
v -150.010422 30.000141 -150.000046
v -37.251663 30.000092 -95.454491
v -150.010422 30.000130 -122.727303
v -30.600548 28.307320 -68.181763
v -150.010437 30.000122 -95.454575
v -21.513977 23.949518 -40.909042
v -150.010468 28.307352 -68.181847
v -150.010468 23.949549 -40.909126
v -142.753616 18.007383 -13.636405
v 8.617325 11.561502 13.636404
v -6.350861 18.007351 -13.636322
v 26.226959 5.692639 40.909126
v -128.701965 11.561534 13.636321
v 41.195160 1.481429 68.181862
v -105.712708 5.692667 40.909046
v 49.999954 -0.000033 95.454590
v -88.124657 1.481461 68.181778
v -75.589561 -0.000093 95.454506
v 49.999939 -0.000047 150.000031
v 8.070549 10.548605 -11.793504
v 8.068779 10.548483 -11.812486
v 16.714020 10.848125 -15.255875
v 16.714020 10.848125 -15.254724
v 4.649719 7.457585 30.139217
v 4.654213 7.460385 30.139156
v 4.914024 7.452309 30.237270
v 4.914024 7.453770 30.237270
v -58.039616 29.652723 -107.815826
v -58.039223 29.653807 -107.810272
vt 0.021870 0.095867
vt 0.407082 0.095898
vt 0.406795 0.032071
vt 0.021896 0.680187
vt 0.021941 0.744014
vt 0.407154 0.744045
vt 0.021851 0.616360
vt 0.407109 0.680218
vt 0.021827 0.551976
vt 0.407064 0.616391
vt 0.021837 0.486714
vt 0.407040 0.552007
vt 0.407050 0.486745
vt 0.407080 0.420962
vt 0.021904 0.354982
vt 0.021867 0.420931
vt 0.021933 0.289222
vt 0.407117 0.355012
vt 0.021941 0.224009
vt 0.407146 0.289253
vt 0.021915 0.159694
vt 0.407154 0.224040
vt 0.407128 0.159725
vt 0.021824 0.032040
vn -0.0000 1.0000 0.0000
vn 0.0000 0.9994 0.0358
vn 0.0000 0.9930 0.1183
vn 0.0000 0.9995 0.0310
vn 0.0000 0.9814 0.1922
vn 0.0000 0.9939 0.1100
vn 0.0000 0.9831 0.1830
vn 0.0000 0.9756 0.2194
vn 0.0000 0.9762 0.2170
vn 0.0000 0.9746 0.2242
vn 0.0000 0.9852 0.1716
vn 0.0000 0.9746 0.2241
vn 0.0000 0.9959 0.0901
vn 0.0000 0.9813 0.1927
vn -0.0000 0.9997 0.0241
vn -0.0000 0.9930 0.1185
vn -0.0000 0.9994 0.0348
usemtl Road.023
s 1
f 1/1/1 2/2/1 3/3/1
f 4/4/1 5/5/1 6/6/1
f 7/7/2 4/4/1 8/8/1
f 9/9/3 7/7/2 10/10/4
f 11/11/5 9/9/3 12/12/6
f 11/11/5 13/13/7 14/14/8
f 15/15/9 16/16/10 14/14/8
f 17/17/11 15/15/9 18/18/12
f 19/19/13 17/17/11 20/20/14
f 21/21/15 19/19/13 22/22/16
f 1/1/1 21/21/15 23/23/17
f 1/1/1 3/3/1 24/24/1
f 4/4/1 6/6/1 8/8/1
f 7/7/2 8/8/1 10/10/4
f 9/9/3 10/10/4 12/12/6
f 11/11/5 12/12/6 13/13/7
f 11/11/5 14/14/8 16/16/10
f 15/15/9 14/14/8 18/18/12
f 17/17/11 18/18/12 20/20/14
f 19/19/13 20/20/14 22/22/16
f 21/21/15 22/22/16 23/23/17
f 1/1/1 23/23/17 2/2/1
l 33 34
l 31 32
l 29 30
l 27 28
l 25 26
