# Blender v2.93.1 OBJ File: 'Roadhitbox.blend'
# www.blender.org
o Plane
v 29.813730 -1.203716 101.568329
v 29.813738 2.222852 101.568329
v 31.299330 -1.203720 102.421753
v 31.299345 2.222849 102.421753
v 31.303053 -1.203720 104.135025
v 31.303061 2.222849 104.135025
v 29.821165 -1.203716 104.994888
v 29.821180 2.222856 104.994888
v 28.335558 -1.203708 104.141464
v 28.335566 2.222860 104.141464
v 28.331858 -1.203708 102.428207
v 28.331865 2.222858 102.428207
v -46.380157 10.234699 9.254811
v -46.380127 16.199707 9.254811
v -43.793999 10.234692 10.740445
v -43.793983 16.199699 10.740445
v -43.787529 10.234694 13.722943
v -43.787498 16.199699 13.722936
v -46.367210 10.234703 15.219823
v -46.367195 16.199715 15.219815
v -48.953377 10.234713 13.734151
v -48.953346 16.199722 13.734151
v -48.959839 10.234709 10.751653
v -48.959824 16.199715 10.751653
v -95.714844 24.432104 -58.298805
v -95.714828 30.424206 -58.298798
v -93.023621 24.432095 -56.982094
v -93.023605 30.424198 -56.982094
v -92.818329 24.432096 -53.993073
v -92.818298 30.424198 -53.993080
v -95.304230 24.432106 -52.320740
v -95.304199 30.424213 -52.320740
v -97.995430 24.432116 -53.637459
v -97.995415 30.424221 -53.637466
v -98.200737 24.432114 -56.626480
v -98.200722 30.424221 -56.626480
v -74.866119 13.948744 -14.466843
v -74.866074 23.608088 -14.466850
v -70.678268 13.948730 -12.061096
v -70.678238 23.608074 -12.061104
v -70.667778 13.948734 -7.231461
v -70.667747 23.608078 -7.231468
v -74.845154 13.948750 -4.807533
v -74.845123 23.608093 -4.807541
v -79.033005 13.948763 -7.213310
v -79.032974 23.608107 -7.213318
v -79.043488 13.948761 -12.042946
v -79.043442 23.608105 -12.042953
v -71.164017 27.592838 -80.240005
v -71.163986 32.896999 -80.240005
v -68.864395 27.592831 -78.918961
v -68.864365 32.896992 -78.918961
v -68.858627 27.592831 -76.266891
v -68.858612 32.896992 -76.266891
v -71.152512 27.592842 -74.935867
v -71.152496 32.896999 -74.935867
v -73.452164 27.592846 -76.256920
v -73.452148 32.897007 -76.256927
v -73.457916 27.592846 -78.908989
v -73.457886 32.897007 -78.908997
v -43.059696 26.358164 -61.386932
v -43.059608 50.814087 -61.386955
v -50.037296 51.571625 -64.483368
v -50.037384 27.115702 -64.483345
v -52.196987 27.115702 -80.768517
v -52.196903 51.571617 -80.768524
v -55.260788 51.571625 -85.449020
v -55.260872 27.115709 -85.449005
v -64.945404 3.458447 77.105354
v -64.945427 0.031882 77.105354
v -64.941689 3.458447 78.818611
v -64.941711 0.031882 78.818611
v -63.456089 3.458443 79.672050
v -63.456104 0.031878 79.672050
v -61.974201 3.458436 78.812187
v -61.974216 0.031874 78.812187
v -61.977917 3.458436 77.098915
v -61.977932 0.031870 77.098915
v -63.463528 3.458439 76.245491
v -63.463535 0.031874 76.245491
v -53.141418 27.115694 -95.753731
v -53.141327 51.571617 -95.753738
v -57.332523 51.571625 -107.060623
v -57.332607 27.115702 -107.060600
v -55.718925 27.115686 -122.978500
v -55.718842 51.571609 -122.978500
v -49.626320 51.571579 -131.023361
v -49.626400 27.115656 -131.023331
v -57.344597 27.115683 -134.101761
v -57.344513 51.571602 -134.101776
v -51.061745 27.115648 -150.901031
v -51.061653 51.571571 -150.901031
v -46.616943 24.246546 -51.982483
v -46.616859 48.702461 -51.982498
v -45.865074 22.319527 -42.330338
v -45.864990 46.775444 -42.330353
v -37.185169 22.319496 -40.547890
v -37.185078 46.775414 -40.547897
v -42.387817 20.436232 -28.956238
v -42.387726 44.892143 -28.956257
v -24.874626 17.342392 -18.362358
v -24.874542 41.798309 -18.362373
v -29.109762 15.072783 -9.299298
v -29.109678 39.528702 -9.299312
v -10.838977 13.924198 -2.182495
v -10.838893 38.380112 -2.182509
v -14.498981 11.720081 4.533298
v -14.498893 36.176003 4.533284
v -10.987296 10.034622 12.981842
v -10.987208 34.490540 12.981827
v -5.997001 10.034605 12.607266
v -5.996910 34.490524 12.607251
v 1.244031 6.794646 29.952579
v 1.244103 31.250566 29.952559
v 4.408635 3.258743 45.983063
v 4.408711 27.714670 45.983055
v 8.993917 3.258728 45.612411
v 8.994000 27.714655 45.612396
v 9.351010 1.800489 56.541328
v 9.351094 26.256414 56.541321
v 16.674198 1.434195 62.820541
v 16.674290 25.890116 62.820526
v 22.662273 1.181723 63.070206
v 22.662350 25.637648 63.070198
v 27.299435 -0.429029 79.614120
v 27.299526 24.026897 79.614098
v 32.375675 -0.429045 80.482300
v 32.375767 24.026880 80.482285
v 30.411831 -1.277536 92.267929
v 30.411907 23.178391 92.267914
v 36.076160 -1.277555 93.540207
v 36.076252 23.178371 93.540192
v 35.353230 -1.277544 105.105255
v 35.353306 23.178381 105.105247
v 32.935863 -1.277533 110.417206
v 32.935940 23.178392 110.417191
v 34.666065 -1.277533 119.422569
v 34.666157 23.178392 119.422554
v 41.935337 -1.277555 120.601646
v 41.935413 23.178368 120.601631
v 42.283321 -1.277555 126.510620
v 42.283413 23.178371 126.510620
v 36.190990 -1.277529 134.194702
v 36.191067 23.178396 134.194717
v 35.821232 -1.277525 137.812088
v 35.821323 23.178400 137.812088
v 40.485958 -1.277536 147.318741
v 40.486050 23.178391 147.318710
v 44.729710 -1.277548 149.651291
v 44.729786 23.178375 149.651291
v -55.778313 -1.277197 149.868835
v -55.778236 23.178730 149.868820
v -49.749462 -1.277224 138.402328
v -49.749390 23.178701 138.402313
v -44.798122 -1.277246 131.632950
v -44.798038 23.178680 131.632935
v -53.572346 -1.277220 127.572998
v -53.572254 23.178707 127.572983
v -51.438374 -1.277227 123.025475
v -51.438290 23.178698 123.025459
v -50.648624 -1.277235 113.375473
v -50.648540 23.178688 113.375458
v -53.326756 -1.277231 108.661224
v -53.326683 23.178696 108.661217
v -57.791866 -1.277212 109.017784
v -57.791779 23.178711 109.017769
v -58.666389 -1.277216 103.042366
v -58.666317 23.178711 103.042358
v -60.361332 -1.277212 99.346703
v -60.361248 23.178715 99.346687
v -65.488884 -1.277197 97.604965
v -65.488792 23.178730 97.604958
v -64.446785 -1.277205 85.595261
v -64.446701 23.178719 85.595253
v -71.654037 -1.277189 76.541832
v -71.653946 23.178740 76.541817
v -71.326797 -1.277197 65.761070
v -71.326706 23.178732 65.761047
v -74.421043 -1.277189 60.950661
v -74.420952 23.178740 60.950645
v -81.936363 1.912893 59.152046
v -81.936287 26.368814 59.152031
v -79.610031 2.637743 52.607224
v -79.609940 27.093664 52.607208
v -84.276329 3.486492 47.234406
v -84.276237 27.942415 47.234398
v -88.952682 4.735481 39.733849
v -88.952606 29.191401 39.733841
v -94.849129 4.735500 38.642921
v -94.849052 29.191423 38.642906
v -94.122375 6.028666 32.839653
v -94.122284 30.484591 32.839638
v -95.432091 7.458800 28.099327
v -95.431999 31.914721 28.099310
v -102.867889 8.151038 25.051922
v -102.867798 32.606956 25.051908
v -114.021584 9.369637 17.820425
v -114.021507 33.825554 17.820410
v -109.979164 12.191158 5.902660
v -109.979073 36.647072 5.902645
v -121.654564 14.334850 -2.956398
v -121.654472 38.790771 -2.956414
v -118.554245 15.207920 -7.237762
v -118.554169 39.663834 -7.237775
v -127.292496 16.386532 -13.530181
v -127.292404 40.842445 -13.530198
v -135.740616 18.948311 -25.478069
v -135.740524 43.404228 -25.478088
v -130.799805 20.806555 -31.663956
v -130.799713 45.262466 -31.663982
v -131.025726 21.707539 -37.217163
v -131.025635 46.163452 -37.217178
v -126.546959 21.707521 -38.281006
v -126.546867 46.163437 -38.281021
v -128.724487 23.427402 -47.803200
v -128.724396 47.883316 -47.803215
v -138.291580 25.989218 -61.160683
v -138.291489 50.445145 -61.160698
v -139.556549 26.615061 -68.690430
v -139.556458 51.070984 -68.690437
v -132.718460 27.449503 -73.314880
v -132.718399 51.905426 -73.314888
v -136.199799 28.406931 -92.844681
v -136.199707 52.862862 -92.844696
v -133.993591 28.406923 -97.559013
v -133.993500 52.862846 -97.559029
v -136.830490 28.406916 -120.639038
v -136.830429 52.862846 -120.639069
v -140.756073 28.406931 -121.075928
v -140.755981 52.862862 -121.075928
v -137.637360 28.406912 -134.006973
v -137.637268 52.862839 -134.006989
v -134.934052 28.406900 -138.759262
v -134.933960 52.862823 -138.759277
v -141.609726 28.406916 -150.389847
v -141.609634 52.862846 -150.389877
vt 1.000000 0.500000
vt 1.000000 1.000000
vt 0.833333 1.000000
vt 0.833333 0.500000
vt 0.666667 1.000000
vt 0.666667 0.500000
vt 0.500000 1.000000
vt 0.500000 0.500000
vt 0.333333 1.000000
vt 0.333333 0.500000
vt 0.457846 0.370000
vt 0.250000 0.490000
vt 0.042154 0.370000
vt 0.042154 0.130000
vt 0.250000 0.010000
vt 0.457846 0.130000
vt 0.166667 1.000000
vt 0.166667 0.500000
vt -0.000000 1.000000
vt -0.000000 0.500000
vt 0.750000 0.490000
vt 0.957846 0.370000
vt 0.957846 0.130000
vt 0.750000 0.010000
vt 0.542154 0.130000
vt 0.542154 0.370000
vt 1.000000 0.500000
vt 1.000000 1.000000
vt 0.833333 1.000000
vt 0.833333 0.500000
vt 0.666667 1.000000
vt 0.666667 0.500000
vt 0.500000 1.000000
vt 0.500000 0.500000
vt 0.333333 1.000000
vt 0.333333 0.500000
vt 0.457846 0.370000
vt 0.250000 0.490000
vt 0.042154 0.370000
vt 0.042154 0.130000
vt 0.250000 0.010000
vt 0.457846 0.130000
vt 0.166667 1.000000
vt 0.166667 0.500000
vt -0.000000 1.000000
vt -0.000000 0.500000
vt 0.750000 0.490000
vt 0.957846 0.370000
vt 0.957846 0.130000
vt 0.750000 0.010000
vt 0.542154 0.130000
vt 0.542154 0.370000
vt 1.000000 0.500000
vt 1.000000 1.000000
vt 0.833333 1.000000
vt 0.833333 0.500000
vt 0.666667 1.000000
vt 0.666667 0.500000
vt 0.500000 1.000000
vt 0.500000 0.500000
vt 0.333333 1.000000
vt 0.333333 0.500000
vt 0.457846 0.370000
vt 0.250000 0.490000
vt 0.042154 0.370000
vt 0.042154 0.130000
vt 0.250000 0.010000
vt 0.457846 0.130000
vt 0.166667 1.000000
vt 0.166667 0.500000
vt -0.000000 1.000000
vt -0.000000 0.500000
vt 0.750000 0.490000
vt 0.957846 0.370000
vt 0.957846 0.130000
vt 0.750000 0.010000
vt 0.542154 0.130000
vt 0.542154 0.370000
vt 1.000000 0.500000
vt 1.000000 1.000000
vt 0.833333 1.000000
vt 0.833333 0.500000
vt 0.666667 1.000000
vt 0.666667 0.500000
vt 0.500000 1.000000
vt 0.500000 0.500000
vt 0.333333 1.000000
vt 0.333333 0.500000
vt 0.457846 0.370000
vt 0.250000 0.490000
vt 0.042154 0.370000
vt 0.042154 0.130000
vt 0.250000 0.010000
vt 0.457846 0.130000
vt 0.166667 1.000000
vt 0.166667 0.500000
vt -0.000000 1.000000
vt -0.000000 0.500000
vt 0.750000 0.490000
vt 0.957846 0.370000
vt 0.957846 0.130000
vt 0.750000 0.010000
vt 0.542154 0.130000
vt 0.542154 0.370000
vt 1.000000 0.500000
vt 1.000000 1.000000
vt 0.833333 1.000000
vt 0.833333 0.500000
vt 0.666667 1.000000
vt 0.666667 0.500000
vt 0.500000 1.000000
vt 0.500000 0.500000
vt 0.333333 1.000000
vt 0.333333 0.500000
vt 0.457846 0.370000
vt 0.250000 0.490000
vt 0.042154 0.370000
vt 0.042154 0.130000
vt 0.250000 0.010000
vt 0.457846 0.130000
vt 0.166667 1.000000
vt 0.166667 0.500000
vt -0.000000 1.000000
vt -0.000000 0.500000
vt 0.750000 0.490000
vt 0.957846 0.370000
vt 0.957846 0.130000
vt 0.750000 0.010000
vt 0.542154 0.130000
vt 0.542154 0.370000
vt 0.000000 1.000000
vt 1.000000 1.000000
vt 1.000000 1.000000
vt 0.000000 1.000000
vt 0.000000 1.000000
vt 1.000000 1.000000
vt 0.000000 1.000000
vt 1.000000 1.000000
vt 0.000000 1.000000
vt 1.000000 1.000000
vt 0.750000 0.490000
vt 0.957846 0.370000
vt 0.957846 0.130000
vt 0.750000 0.010000
vt 0.542154 0.130000
vt 0.542154 0.370000
vt 0.166667 0.500000
vt 0.166667 1.000000
vt -0.000000 1.000000
vt -0.000000 0.500000
vt 0.333333 0.500000
vt 0.333333 1.000000
vt 0.457846 0.370000
vt 0.250000 0.490000
vt 0.042154 0.370000
vt 0.042154 0.130000
vt 0.250000 0.010000
vt 0.457846 0.130000
vt 0.500000 0.500000
vt 0.500000 1.000000
vt 0.666667 0.500000
vt 0.666667 1.000000
vt 0.833333 0.500000
vt 0.833333 1.000000
vt 1.000000 0.500000
vt 1.000000 1.000000
vt 0.000000 1.000000
vt 1.000000 1.000000
vt 0.000000 1.000000
vt 1.000000 1.000000
vt 0.000000 1.000000
vt 1.000000 1.000000
vt 0.000000 1.000000
vt 1.000000 1.000000
vt 0.000000 0.000000
vt 1.000000 0.000000
vt 1.000000 1.000000
vt 0.000000 1.000000
vt 1.000000 1.000000
vt 0.000000 1.000000
vt 1.000000 1.000000
vt 0.000000 1.000000
vt 1.000000 1.000000
vt 0.000000 1.000000
vt 1.000000 1.000000
vt 0.000000 1.000000
vt 1.000000 1.000000
vt 0.000000 1.000000
vt 1.000000 1.000000
vt 0.000000 1.000000
vt 1.000000 1.000000
vt 0.000000 1.000000
vt 1.000000 1.000000
vt 0.000000 1.000000
vt 1.000000 1.000000
vt 0.000000 1.000000
vt 1.000000 1.000000
vt 0.000000 1.000000
vt 1.000000 1.000000
vt 0.000000 1.000000
vt 1.000000 1.000000
vt 0.000000 1.000000
vt 1.000000 1.000000
vt 0.000000 1.000000
vt 1.000000 1.000000
vt 0.000000 1.000000
vt 1.000000 1.000000
vt 0.000000 1.000000
vt 1.000000 1.000000
vt 0.000000 1.000000
vt 1.000000 1.000000
vt 0.000000 1.000000
vt 1.000000 1.000000
vt 0.000000 1.000000
vt 1.000000 1.000000
vt 0.000000 1.000000
vt 1.000000 1.000000
vt 0.000000 1.000000
vt 1.000000 1.000000
vt 0.000000 1.000000
vt 1.000000 1.000000
vt 0.000000 1.000000
vt 1.000000 1.000000
vt 0.000000 1.000000
vt 1.000000 1.000000
vt 0.000000 1.000000
vt 1.000000 1.000000
vt 0.000000 1.000000
vt 1.000000 1.000000
vt 0.000000 1.000000
vt 1.000000 1.000000
vt 0.000000 1.000000
vt 1.000000 1.000000
vt 0.000000 1.000000
vt 0.000000 1.000000
vt 1.000000 1.000000
vt 1.000000 1.000000
vt 0.000000 1.000000
vt 1.000000 1.000000
vt 0.000000 1.000000
vt 1.000000 1.000000
vt 0.000000 1.000000
vt 1.000000 1.000000
vt 0.000000 1.000000
vt 1.000000 1.000000
vt 0.000000 1.000000
vt 1.000000 1.000000
vt 0.000000 1.000000
vt 1.000000 1.000000
vt 0.000000 1.000000
vt 1.000000 1.000000
vt 0.000000 1.000000
vt 1.000000 1.000000
vt 0.000000 1.000000
vt 1.000000 1.000000
vt 0.000000 1.000000
vt 1.000000 1.000000
vt 0.000000 1.000000
vt 1.000000 1.000000
vt 0.000000 1.000000
vt 1.000000 1.000000
vt 0.000000 1.000000
vt 1.000000 1.000000
vt 0.000000 1.000000
vt 1.000000 1.000000
vt 0.000000 1.000000
vt 1.000000 1.000000
vt 0.000000 1.000000
vt 1.000000 1.000000
vt 0.000000 1.000000
vt 1.000000 1.000000
vt 0.000000 1.000000
vt 1.000000 1.000000
vt 0.000000 1.000000
vt 1.000000 1.000000
vt 0.000000 1.000000
vt 1.000000 1.000000
vt 0.000000 1.000000
vt 1.000000 1.000000
vt 0.000000 1.000000
vt 1.000000 1.000000
vt 0.000000 1.000000
vt 1.000000 1.000000
vt 0.000000 1.000000
vt 1.000000 1.000000
vt 0.000000 1.000000
vt 1.000000 1.000000
vt 0.000000 1.000000
vt 1.000000 1.000000
vt 0.000000 1.000000
vt 1.000000 1.000000
vt 0.000000 1.000000
vt 1.000000 1.000000
vt 0.000000 1.000000
vt 1.000000 1.000000
vt 0.000000 1.000000
vt 1.000000 1.000000
vt 0.000000 1.000000
vt 1.000000 1.000000
vt 0.000000 1.000000
vt 1.000000 1.000000
vt 0.000000 1.000000
vt 1.000000 1.000000
vt 0.000000 1.000000
vt 1.000000 1.000000
vt 0.000000 1.000000
vt 1.000000 1.000000
vt 0.000000 1.000000
vt 1.000000 1.000000
vt 0.000000 1.000000
vt 1.000000 1.000000
vt 0.000000 1.000000
vt 1.000000 1.000000
vt 0.000000 1.000000
vt 1.000000 1.000000
vt 0.000000 1.000000
vt 1.000000 1.000000
vt 0.000000 1.000000
vt 1.000000 1.000000
vt 0.000000 1.000000
vn 0.4981 -0.0000 -0.8671
vn 1.0000 -0.0000 -0.0022
vn 0.5019 -0.0000 0.8649
vn -0.4981 0.0000 0.8671
vn 0.0000 1.0000 -0.0000
vn -1.0000 0.0000 0.0022
vn -0.5019 0.0000 -0.8649
vn -0.0000 -1.0000 -0.0000
vn 0.4395 -0.0000 -0.8983
vn 0.9976 -0.0000 -0.0685
vn 0.5582 -0.0000 0.8297
vn -0.4395 0.0000 0.8982
vn -0.9976 0.0000 0.0685
vn -0.5582 0.0000 -0.8297
vn -0.4056 0.0000 0.9140
vn -0.9913 0.0000 0.1315
vn -0.8367 0.0000 0.5477
vn -0.9795 0.0000 -0.2015
vn -0.9377 0.0000 0.3476
vn -0.9949 0.0000 -0.1009
vn -0.7972 0.0000 -0.6037
vn -0.3705 0.0000 0.9288
vn -0.9366 0.0000 -0.3503
vn -0.9353 0.0000 -0.3538
vn -0.9970 0.0000 0.0777
vn -0.2012 0.0000 0.9796
vn -0.9123 0.0000 -0.4095
vn -0.5176 0.0000 0.8556
vn -0.9060 0.0000 -0.4234
vn -0.3630 0.0000 0.9318
vn -0.8781 0.0000 -0.4785
vn -0.9234 0.0000 0.3838
vn 0.0749 0.0000 0.9972
vn -0.9228 0.0000 0.3852
vn -0.9811 0.0000 0.1937
vn 0.0806 0.0000 0.9967
vn -0.9995 0.0000 0.0327
vn -0.6509 0.0000 0.7591
vn -0.0417 0.0000 0.9991
vn -0.9629 0.0000 0.2699
vn -0.1686 0.0000 0.9857
vn -0.9864 0.0000 -0.1644
vn -0.2192 0.0000 0.9757
vn -0.9981 0.0000 -0.0624
vn -0.9102 0.0000 -0.4142
vn -0.9820 0.0000 0.1887
vn -0.1601 0.0000 0.9871
vn -0.9983 0.0000 0.0588
vn -0.7836 0.0000 -0.6213
vn -0.9948 0.0000 -0.1017
vn -0.8977 0.0000 0.4405
vn -0.4817 0.0000 0.8763
vn 0.8851 -0.0000 0.4654
vn 0.8071 -0.0000 0.5904
vn 0.4199 -0.0000 -0.9076
vn 0.9053 -0.0000 0.4248
vn 0.9967 -0.0000 0.0816
vn 0.8695 -0.0000 -0.4940
vn -0.0796 -0.0000 -0.9968
vn 0.9895 -0.0000 -0.1448
vn 0.9090 -0.0000 -0.4169
vn 0.3216 -0.0000 -0.9469
vn 0.9963 -0.0000 0.0864
vn 0.7824 -0.0000 -0.6228
vn 0.9995 -0.0000 0.0303
vn 0.8410 -0.0000 -0.5410
vn 0.2328 -0.0000 -0.9725
vn 0.9422 -0.0000 0.3349
vn 0.7550 -0.0000 -0.6557
vn 0.8486 -0.0000 -0.5291
vn 0.1819 -0.0000 -0.9833
vn 0.9922 -0.0000 0.1243
vn 0.9639 -0.0000 -0.2663
vn 0.3792 -0.0000 -0.9253
vn 0.5440 -0.0000 -0.8391
vn 0.9470 -0.0000 0.3212
vn 0.6045 -0.0000 -0.7966
vn 0.8099 -0.0000 0.5865
vn 0.5844 -0.0000 -0.8115
vn 0.8165 -0.0000 -0.5773
vn 0.7814 -0.0000 0.6241
vn 0.9992 -0.0000 -0.0407
vn 0.2311 -0.0000 0.9729
vn 0.9748 -0.0000 -0.2229
vn 0.8130 -0.0000 -0.5823
vn 0.9862 -0.0000 -0.1657
vn 0.5602 -0.0000 0.8284
vn 0.9845 -0.0000 -0.1755
vn 0.9057 -0.0000 0.4239
vn 0.9925 -0.0000 -0.1220
vn 0.1106 -0.0000 -0.9939
vn 0.9721 -0.0000 0.2345
vn 0.8692 -0.0000 0.4944
vn 0.8673 -0.0000 -0.4978
s off
f 1/1/1 2/2/1 4/3/1 3/4/1
f 3/4/2 4/3/2 6/5/2 5/6/2
f 5/6/3 6/5/3 8/7/3 7/8/3
f 7/8/4 8/7/4 10/9/4 9/10/4
f 4/11/5 2/12/5 12/13/5 10/14/5 8/15/5 6/16/5
f 9/10/6 10/9/6 12/17/6 11/18/6
f 11/18/7 12/17/7 2/19/7 1/20/7
f 1/21/8 3/22/8 5/23/8 7/24/8 9/25/8 11/26/8
f 13/27/1 14/28/1 16/29/1 15/30/1
f 15/30/2 16/29/2 18/31/2 17/32/2
f 17/32/3 18/31/3 20/33/3 19/34/3
f 19/34/4 20/33/4 22/35/4 21/36/4
f 16/37/5 14/38/5 24/39/5 22/40/5 20/41/5 18/42/5
f 21/36/6 22/35/6 24/43/6 23/44/6
f 23/44/7 24/43/7 14/45/7 13/46/7
f 13/47/8 15/48/8 17/49/8 19/50/8 21/51/8 23/52/8
f 25/53/9 26/54/9 28/55/9 27/56/9
f 27/56/10 28/55/10 30/57/10 29/58/10
f 29/58/11 30/57/11 32/59/11 31/60/11
f 31/60/12 32/59/12 34/61/12 33/62/12
f 28/63/5 26/64/5 36/65/5 34/66/5 32/67/5 30/68/5
f 33/62/13 34/61/13 36/69/13 35/70/13
f 35/70/14 36/69/14 26/71/14 25/72/14
f 25/73/8 27/74/8 29/75/8 31/76/8 33/77/8 35/78/8
f 37/79/1 38/80/1 40/81/1 39/82/1
f 39/82/2 40/81/2 42/83/2 41/84/2
f 41/84/3 42/83/3 44/85/3 43/86/3
f 43/86/4 44/85/4 46/87/4 45/88/4
f 40/89/5 38/90/5 48/91/5 46/92/5 44/93/5 42/94/5
f 45/88/6 46/87/6 48/95/6 47/96/6
f 47/96/7 48/95/7 38/97/7 37/98/7
f 37/99/8 39/100/8 41/101/8 43/102/8 45/103/8 47/104/8
f 49/105/1 50/106/1 52/107/1 51/108/1
f 51/108/2 52/107/2 54/109/2 53/110/2
f 53/110/3 54/109/3 56/111/3 55/112/3
f 55/112/4 56/111/4 58/113/4 57/114/4
f 52/115/5 50/116/5 60/117/5 58/118/5 56/119/5 54/120/5
f 57/114/6 58/113/6 60/121/6 59/122/6
f 59/122/7 60/121/7 50/123/7 49/124/7
f 49/125/8 51/126/8 53/127/8 55/128/8 57/129/8 59/130/8
f 63/131/15 64/132/15 61/133/15 62/134/15
f 66/135/16 65/136/16 64/132/16 63/131/16
f 67/137/17 68/138/17 65/136/17 66/135/17
f 82/139/18 81/140/18 68/138/18 67/137/18
f 80/141/8 78/142/8 76/143/8 74/144/8 72/145/8 70/146/8
f 70/147/7 69/148/7 79/149/7 80/150/7
f 72/151/6 71/152/6 69/148/6 70/147/6
f 77/153/5 79/154/5 69/155/5 71/156/5 73/157/5 75/158/5
f 74/159/4 73/160/4 71/152/4 72/151/4
f 76/161/3 75/162/3 73/160/3 74/159/3
f 78/163/2 77/164/2 75/162/2 76/161/2
f 80/165/1 79/166/1 77/164/1 78/163/1
f 83/167/19 84/168/19 81/140/19 82/139/19
f 86/169/20 85/170/20 84/168/20 83/167/20
f 87/171/21 88/172/21 85/170/21 86/169/21
f 90/173/22 89/174/22 88/172/22 87/171/22
f 92/175/23 91/176/23 89/174/23 90/173/23
f 62/134/24 61/133/24 93/177/24 94/178/24
f 94/178/25 93/177/25 95/179/25 96/180/25
f 96/180/26 95/179/26 97/181/26 98/182/26
f 98/182/27 97/181/27 99/183/27 100/184/27
f 100/184/28 99/183/28 101/185/28 102/186/28
f 102/186/29 101/185/29 103/187/29 104/188/29
f 104/188/30 103/187/30 105/189/30 106/190/30
f 106/190/31 105/189/31 107/191/31 108/192/31
f 108/192/32 107/191/32 109/193/32 110/194/32
f 110/194/33 109/193/33 111/195/33 112/196/33
f 112/196/34 111/195/34 113/197/34 114/198/34
f 114/198/35 113/197/35 115/199/35 116/200/35
f 116/200/36 115/199/36 117/201/36 118/202/36
f 118/202/37 117/201/37 119/203/37 120/204/37
f 120/204/38 119/203/38 121/205/38 122/206/38
f 122/206/39 121/205/39 123/207/39 124/208/39
f 124/208/40 123/207/40 125/209/40 126/210/40
f 126/210/41 125/209/41 127/211/41 128/212/41
f 128/212/42 127/211/42 129/213/42 130/214/42
f 130/214/43 129/213/43 131/215/43 132/216/43
f 132/216/44 131/215/44 133/217/44 134/218/44
f 134/218/45 133/217/45 135/219/45 136/220/45
f 136/220/46 135/219/46 137/221/46 138/222/46
f 138/222/47 137/221/47 139/223/47 140/224/47
f 140/224/48 139/223/48 141/225/48 142/226/48
f 142/226/49 141/225/49 143/227/49 144/228/49
f 144/228/50 143/227/50 145/229/50 146/230/50
f 146/230/51 145/229/51 147/231/51 148/232/51
f 148/232/52 147/231/52 149/233/52 150/234/52
f 152/235/53 151/236/53 153/237/53 154/238/53
f 154/238/54 153/237/54 155/239/54 156/240/54
f 156/240/55 155/239/55 157/241/55 158/242/55
f 158/242/56 157/241/56 159/243/56 160/244/56
f 160/244/57 159/243/57 161/245/57 162/246/57
f 162/246/58 161/245/58 163/247/58 164/248/58
f 164/248/59 163/247/59 165/249/59 166/250/59
f 166/250/60 165/249/60 167/251/60 168/252/60
f 168/252/61 167/251/61 169/253/61 170/254/61
f 170/254/62 169/253/62 171/255/62 172/256/62
f 172/256/63 171/255/63 173/257/63 174/258/63
f 174/258/64 173/257/64 175/259/64 176/260/64
f 176/260/65 175/259/65 177/261/65 178/262/65
f 178/262/66 177/261/66 179/263/66 180/264/66
f 180/264/67 179/263/67 181/265/67 182/266/67
f 182/266/68 181/265/68 183/267/68 184/268/68
f 184/268/69 183/267/69 185/269/69 186/270/69
f 186/270/70 185/269/70 187/271/70 188/272/70
f 188/272/71 187/271/71 189/273/71 190/274/71
f 190/274/72 189/273/72 191/275/72 192/276/72
f 192/276/73 191/275/73 193/277/73 194/278/73
f 194/278/74 193/277/74 195/279/74 196/280/74
f 196/280/75 195/279/75 197/281/75 198/282/75
f 198/282/76 197/281/76 199/283/76 200/284/76
f 200/284/77 199/283/77 201/285/77 202/286/77
f 202/286/78 201/285/78 203/287/78 204/288/78
f 204/288/79 203/287/79 205/289/79 206/290/79
f 206/290/80 205/289/80 207/291/80 208/292/80
f 208/292/81 207/291/81 209/293/81 210/294/81
f 210/294/82 209/293/82 211/295/82 212/296/82
f 212/296/83 211/295/83 213/297/83 214/298/83
f 214/298/84 213/297/84 215/299/84 216/300/84
f 216/300/85 215/299/85 217/301/85 218/302/85
f 218/302/86 217/301/86 219/303/86 220/304/86
f 220/304/87 219/303/87 221/305/87 222/306/87
f 222/306/88 221/305/88 223/307/88 224/308/88
f 224/308/89 223/307/89 225/309/89 226/310/89
f 226/310/90 225/309/90 227/311/90 228/312/90
f 228/312/91 227/311/91 229/313/91 230/314/91
f 230/314/92 229/313/92 231/315/92 232/316/92
f 232/316/93 231/315/93 233/317/93 234/318/93
f 234/318/94 233/317/94 235/319/94 236/320/94
