# Blender v2.93.1 OBJ File: ''
# www.blender.org
o Rocks_LowPoly1_Cube.000
v -149.999969 -30.000097 -122.727295
v -50.000000 -30.000225 -149.999969
v -37.680145 -30.000179 -122.727226
v -55.751060 0.000155 122.727203
v 50.010437 0.000214 150.000031
v -50.000000 0.000183 149.999969
v -62.748329 0.000139 95.454475
v 50.010437 0.000190 122.727280
v -69.399445 -1.692647 68.181747
v 50.010452 0.000170 95.454552
v -78.486023 -6.050461 40.909039
v 50.010468 -1.692615 68.181824
v 42.753616 -11.992611 13.636394
v 50.010468 -6.050431 40.909111
v -108.617325 -18.438503 -13.636399
v -93.649139 -11.992643 13.636323
v -126.226959 -24.307379 -40.909115
v 28.701965 -18.438471 -13.636331
v -141.195160 -28.518606 -68.181839
v 5.712708 -24.307350 -40.909046
v -149.999969 -30.000078 -95.454567
v -11.875351 -28.518574 -68.181770
v -24.410446 -30.000139 -95.454498
v -149.999954 -30.000122 -150.000031
v -41.960377 -0.347223 107.815811
v -41.960770 -0.346140 107.810257
v -104.914024 -22.547709 -30.237267
v -104.914024 -22.546247 -30.237267
v -104.649712 -22.542433 -30.139214
v -104.654213 -22.539633 -30.139153
v -116.714020 -19.151869 15.255879
v -116.714020 -19.151869 15.254729
v -108.070549 -19.451389 11.793509
v -108.068779 -19.451511 11.812490
vt 0.021870 0.095867
vt 0.407082 0.095898
vt 0.406795 0.032071
vt 0.021896 0.680187
vt 0.021941 0.744014
vt 0.407154 0.744045
vt 0.021851 0.616360
vt 0.407109 0.680218
vt 0.021827 0.551976
vt 0.407064 0.616391
vt 0.021837 0.486714
vt 0.407040 0.552007
vt 0.407050 0.486745
vt 0.407080 0.420962
vt 0.021904 0.354982
vt 0.021867 0.420931
vt 0.021933 0.289222
vt 0.407117 0.355012
vt 0.021941 0.224009
vt 0.407146 0.289253
vt 0.021915 0.159694
vt 0.407154 0.224040
vt 0.407128 0.159725
vt 0.021824 0.032040
vn 0.0000 1.0000 -0.0000
vn -0.0000 0.9994 -0.0358
vn -0.0000 0.9930 -0.1183
vn -0.0000 0.9995 -0.0310
vn -0.0000 0.9814 -0.1922
vn -0.0000 0.9939 -0.1100
vn -0.0000 0.9831 -0.1830
vn -0.0000 0.9756 -0.2194
vn -0.0000 0.9762 -0.2170
vn -0.0000 0.9746 -0.2242
vn -0.0000 0.9852 -0.1716
vn -0.0000 0.9746 -0.2241
vn -0.0000 0.9959 -0.0901
vn -0.0000 0.9813 -0.1927
vn 0.0000 0.9997 -0.0241
vn 0.0000 0.9930 -0.1185
vn 0.0000 0.9994 -0.0348
s 1
f 1/1/1 3/2/1 2/3/1
f 4/4/1 6/5/1 5/6/1
f 7/7/2 4/4/1 8/8/1
f 9/9/3 7/7/2 10/10/4
f 11/11/5 9/9/3 12/12/6
f 11/11/5 14/13/7 13/14/8
f 15/15/9 16/16/10 13/14/8
f 17/17/11 15/15/9 18/18/12
f 19/19/13 17/17/11 20/20/14
f 21/21/15 19/19/13 22/22/16
f 1/1/1 21/21/15 23/23/17
f 1/1/1 2/3/1 24/24/1
f 4/4/1 5/6/1 8/8/1
f 7/7/2 8/8/1 10/10/4
f 9/9/3 10/10/4 12/12/6
f 11/11/5 12/12/6 14/13/7
f 11/11/5 13/14/8 16/16/10
f 15/15/9 13/14/8 18/18/12
f 17/17/11 18/18/12 20/20/14
f 19/19/13 20/20/14 22/22/16
f 21/21/15 22/22/16 23/23/17
f 1/1/1 23/23/17 3/2/1
l 25 26
l 27 28
l 29 30
l 31 32
l 33 34
