# Blender v2.93.1 OBJ File: 'Roadhitbox.blend'
# www.blender.org
o Plane
v -36.875854 -29.526804 -76.119171
v -36.875854 -26.100237 -76.119171
v -38.359604 -29.526804 -76.975815
v -38.359604 -26.100237 -76.975815
v -38.359604 -29.526804 -78.689087
v -38.359604 -26.100237 -78.689087
v -36.875854 -29.526804 -79.545746
v -36.875854 -26.100237 -79.545746
v -35.392105 -29.526804 -78.689087
v -35.392105 -26.100237 -78.689087
v -35.392105 -29.526804 -76.975815
v -35.392105 -26.100237 -76.975815
v -53.630650 -18.885534 -9.075028
v -53.630650 -12.920520 -9.075028
v -56.213573 -18.885534 -10.566278
v -56.213573 -12.920520 -10.566278
v -56.213573 -18.885534 -13.548776
v -56.213573 -12.920520 -13.548776
v -53.630650 -18.885534 -15.040042
v -53.630650 -12.920520 -15.040042
v -51.047726 -18.885534 -13.548776
v -51.047726 -12.920520 -13.548776
v -51.047726 -18.885534 -10.566278
v -51.047726 -12.920520 -10.566278
v -4.042215 -5.359373 58.012043
v -4.042215 0.632738 58.012043
v -6.730570 -5.359373 56.689503
v -6.730570 0.632738 56.689503
v -6.929392 -5.359373 53.700058
v -6.929392 0.632738 53.700058
v -4.439878 -5.359373 52.033127
v -4.439878 0.632738 52.033127
v -1.751514 -5.359373 53.355667
v -1.751514 0.632738 53.355667
v -1.552687 -5.359373 56.345112
v -1.552687 0.632738 56.345112
v -26.431507 -15.624002 14.857027
v -26.431507 -5.964658 14.857027
v -30.614132 -15.624002 12.442202
v -30.614132 -5.964658 12.442202
v -30.614132 -15.624002 7.612551
v -30.614132 -5.964658 7.612551
v -26.431507 -15.624002 5.197695
v -26.431507 -5.964658 5.197695
v -22.248890 -15.624002 7.612551
v -22.248890 -5.964658 7.612551
v -22.248890 -15.624002 12.442202
v -22.248890 -5.964658 12.442202
v -29.247017 -2.519531 79.967270
v -29.247017 2.784624 79.967270
v -31.543774 -2.519531 78.641235
v -31.543774 2.784624 78.641235
v -31.543774 -2.519531 75.989159
v -31.543774 2.784624 75.989159
v -29.247017 -2.519531 74.663116
v -29.247017 2.784624 74.663116
v -26.950237 -2.519531 75.989159
v -26.950237 2.784624 75.989159
v -26.950237 -2.519531 78.641235
v -26.950237 2.784624 78.641235
v -56.984913 -2.975423 60.979027
v -56.984913 21.480501 60.979027
v -50.013947 22.238018 64.090561
v -50.013947 -2.217906 64.090561
v -47.889679 -2.217906 80.380371
v -47.889679 22.238018 80.380371
v -44.835953 22.238018 85.067505
v -44.835953 -2.217906 85.067505
v -128.119598 -26.824146 -102.612213
v -128.119598 -30.250713 -102.612213
v -128.119598 -26.824146 -104.325485
v -128.119598 -30.250713 -104.325485
v -129.603348 -26.824146 -105.182137
v -129.603348 -30.250713 -105.182137
v -131.087097 -26.824146 -104.325485
v -131.087097 -30.250713 -104.325485
v -131.087097 -26.824146 -102.612213
v -131.087097 -30.250713 -102.612213
v -129.603348 -26.824146 -101.755569
v -129.603348 -30.250713 -101.755569
v -46.977760 -2.217906 95.367615
v -46.977760 22.238018 95.367615
v -42.811108 22.238018 106.683548
v -42.811108 -2.217906 106.683548
v -44.459328 -2.217906 122.597847
v -44.459328 22.238018 122.597847
v -50.569290 22.238018 130.629486
v -50.569290 -2.217906 130.629486
v -42.857784 -2.217906 133.724655
v -42.857784 22.238018 133.724655
v -49.177071 -2.217906 150.510239
v -49.177071 22.238018 150.510239
v -53.407276 -5.087064 51.582314
v -53.407276 19.368860 51.582314
v -54.138210 -7.014086 41.928558
v -54.138210 17.441837 41.928558
v -62.814228 -7.014086 40.127277
v -62.814228 17.441837 40.127277
v -57.586456 -8.897378 28.546942
v -57.586456 15.558546 28.546942
v -75.076637 -11.991163 17.915104
v -75.076637 12.464762 17.915104
v -70.821846 -14.260793 8.861252
v -70.821846 10.195132 8.861252
v -89.077156 -15.409318 1.704831
v -89.077156 9.046607 1.704831
v -85.402611 -17.613451 -5.003006
v -85.402611 6.842474 -5.003006
v -88.895958 -19.298901 -13.459146
v -88.895958 5.157025 -13.459146
v -93.887054 -19.298901 -13.095397
v -93.887054 5.157025 -13.095397
v -101.090439 -22.538845 -30.456375
v -101.090439 1.917081 -30.456375
v -104.220284 -26.074741 -46.493683
v -104.220284 -1.618815 -46.493683
v -108.806374 -26.074741 -46.132984
v -108.806374 -1.618815 -46.132984
v -109.139755 -27.532988 -57.062641
v -109.139755 -3.077062 -57.062641
v -116.449310 -27.899263 -63.357727
v -116.449310 -3.443337 -63.357727
v -122.436813 -28.151716 -63.620392
v -122.436813 -3.695791 -63.620392
v -127.038078 -29.762461 -80.174316
v -127.038078 -5.306536 -80.174316
v -132.112442 -29.762461 -81.053520
v -132.112442 -5.306536 -81.053520
v -130.123016 -30.610964 -92.834839
v -130.123016 -6.155040 -92.834839
v -135.784592 -30.610964 -94.119408
v -135.784592 -6.155040 -94.119408
v -135.036560 -30.610964 -105.682861
v -135.036560 -6.155040 -105.682861
v -132.607681 -30.610964 -110.989571
v -132.607681 -6.155040 -110.989571
v -134.318329 -30.610964 -119.998642
v -134.318329 -6.155040 -119.998642
v -141.585022 -30.610964 -121.193474
v -141.585022 -6.155040 -121.193474
v -141.920212 -30.610964 -127.103241
v -141.920212 -6.155040 -127.103241
v -135.811218 -30.610964 -134.774078
v -135.811218 -6.155040 -134.774078
v -135.433609 -30.610964 -138.390671
v -135.433609 -6.155040 -138.390671
v -140.077713 -30.610964 -147.907410
v -140.077713 -6.155040 -147.907410
v -144.316376 -30.610964 -150.249146
v -144.316376 -6.155040 -150.249146
v -43.808105 -30.610964 -150.248642
v -43.808105 -6.155040 -150.248642
v -49.861824 -30.610964 -138.795258
v -49.861824 -6.155040 -138.795258
v -54.827847 -30.610964 -132.036621
v -54.827847 -6.155040 -132.036621
v -46.062443 -30.610964 -127.957649
v -46.062443 -6.155040 -127.957649
v -48.206276 -30.610964 -123.414764
v -48.206276 -6.155040 -123.414764
v -49.016968 -30.610964 -113.766487
v -49.016968 -6.155040 -113.766487
v -46.349056 -30.610964 -109.046448
v -46.349056 -6.155040 -109.046448
v -41.883190 -30.610964 -109.393318
v -41.883190 -6.155040 -109.393318
v -41.021626 -30.610964 -103.416023
v -41.021626 -6.155040 -103.416023
v -39.334709 -30.610964 -99.716698
v -39.334709 -6.155040 -99.716698
v -34.210953 -30.610964 -97.963821
v -34.210953 -6.155040 -97.963821
v -35.279095 -30.610964 -85.956398
v -35.279095 -6.155040 -85.956398
v -28.091503 -30.610964 -76.887367
v -28.091503 -6.155040 -76.887367
v -28.442131 -30.610964 -66.107338
v -28.442131 -6.155040 -66.107338
v -25.358313 -30.610964 -61.290234
v -25.358313 -6.155040 -61.290234
v -17.846905 -27.420906 -59.475327
v -17.846905 -2.964983 -59.475327
v -20.187435 -26.696047 -52.935551
v -20.187435 -2.240123 -52.935551
v -15.532803 -25.847305 -47.552635
v -15.532803 -1.391382 -47.552635
v -10.872721 -24.598331 -40.041954
v -10.872721 -0.142408 -40.041954
v -4.978642 -24.598331 -38.938236
v -4.978642 -0.142408 -38.938236
v -5.717994 -23.305161 -33.136555
v -5.717994 1.150762 -33.136555
v -4.418569 -21.875029 -28.393396
v -4.418569 2.580895 -28.393396
v 3.010597 -21.182816 -25.329870
v 3.010597 3.273107 -25.329870
v 14.148593 -19.964252 -18.074194
v 14.148593 4.491671 -18.074194
v 10.080330 -17.142710 -6.165232
v 10.080330 7.313213 -6.165232
v 21.736513 -14.999054 2.719137
v 21.736513 9.456869 2.719137
v 18.626917 -14.125970 6.993762
v 18.626917 10.329953 6.993762
v 27.351496 -12.947385 13.305120
v 27.351496 11.508538 13.305120
v 35.773640 -10.385630 25.271305
v 35.773640 14.070293 25.271305
v 30.819458 -8.527364 31.446465
v 30.819458 15.928559 31.446465
v 31.033318 -7.626378 37.000145
v 31.033318 16.829546 37.000145
v 26.552277 -7.626378 38.054276
v 26.552277 16.829546 38.054276
v 28.709141 -5.906498 47.581146
v 28.709141 18.549427 47.581146
v 38.247231 -3.344703 60.959358
v 38.247231 21.111223 60.959358
v 39.495865 -2.718858 68.491829
v 39.495865 21.737068 68.491829
v 32.647789 -1.884391 73.101418
v 32.647789 22.571535 73.101418
v 36.086735 -0.926961 92.638733
v 36.086735 23.528965 92.638733
v 33.870308 -0.926961 97.348244
v 33.870308 23.528965 97.348244
v 36.657139 -0.926961 120.434402
v 36.657139 23.528965 120.434402
v 40.581757 -0.926961 120.879814
v 40.581757 23.528965 120.879814
v 37.435009 -0.926961 133.804001
v 37.435009 23.528965 133.804001
v 34.721363 -0.926961 138.550430
v 34.721363 23.528965 138.550430
v 41.371799 -0.926961 150.195465
v 41.371799 23.528965 150.195465
vt 1.000000 0.500000
vt 1.000000 1.000000
vt 0.833333 1.000000
vt 0.833333 0.500000
vt 0.666667 1.000000
vt 0.666667 0.500000
vt 0.500000 1.000000
vt 0.500000 0.500000
vt 0.333333 1.000000
vt 0.333333 0.500000
vt 0.457846 0.370000
vt 0.250000 0.490000
vt 0.042154 0.370000
vt 0.042154 0.130000
vt 0.250000 0.010000
vt 0.457846 0.130000
vt 0.166667 1.000000
vt 0.166667 0.500000
vt -0.000000 1.000000
vt -0.000000 0.500000
vt 0.750000 0.490000
vt 0.957846 0.370000
vt 0.957846 0.130000
vt 0.750000 0.010000
vt 0.542154 0.130000
vt 0.542154 0.370000
vt 1.000000 0.500000
vt 1.000000 1.000000
vt 0.833333 1.000000
vt 0.833333 0.500000
vt 0.666667 1.000000
vt 0.666667 0.500000
vt 0.500000 1.000000
vt 0.500000 0.500000
vt 0.333333 1.000000
vt 0.333333 0.500000
vt 0.457846 0.370000
vt 0.250000 0.490000
vt 0.042154 0.370000
vt 0.042154 0.130000
vt 0.250000 0.010000
vt 0.457846 0.130000
vt 0.166667 1.000000
vt 0.166667 0.500000
vt -0.000000 1.000000
vt -0.000000 0.500000
vt 0.750000 0.490000
vt 0.957846 0.370000
vt 0.957846 0.130000
vt 0.750000 0.010000
vt 0.542154 0.130000
vt 0.542154 0.370000
vt 1.000000 0.500000
vt 1.000000 1.000000
vt 0.833333 1.000000
vt 0.833333 0.500000
vt 0.666667 1.000000
vt 0.666667 0.500000
vt 0.500000 1.000000
vt 0.500000 0.500000
vt 0.333333 1.000000
vt 0.333333 0.500000
vt 0.457846 0.370000
vt 0.250000 0.490000
vt 0.042154 0.370000
vt 0.042154 0.130000
vt 0.250000 0.010000
vt 0.457846 0.130000
vt 0.166667 1.000000
vt 0.166667 0.500000
vt -0.000000 1.000000
vt -0.000000 0.500000
vt 0.750000 0.490000
vt 0.957846 0.370000
vt 0.957846 0.130000
vt 0.750000 0.010000
vt 0.542154 0.130000
vt 0.542154 0.370000
vt 1.000000 0.500000
vt 1.000000 1.000000
vt 0.833333 1.000000
vt 0.833333 0.500000
vt 0.666667 1.000000
vt 0.666667 0.500000
vt 0.500000 1.000000
vt 0.500000 0.500000
vt 0.333333 1.000000
vt 0.333333 0.500000
vt 0.457846 0.370000
vt 0.250000 0.490000
vt 0.042154 0.370000
vt 0.042154 0.130000
vt 0.250000 0.010000
vt 0.457846 0.130000
vt 0.166667 1.000000
vt 0.166667 0.500000
vt -0.000000 1.000000
vt -0.000000 0.500000
vt 0.750000 0.490000
vt 0.957846 0.370000
vt 0.957846 0.130000
vt 0.750000 0.010000
vt 0.542154 0.130000
vt 0.542154 0.370000
vt 1.000000 0.500000
vt 1.000000 1.000000
vt 0.833333 1.000000
vt 0.833333 0.500000
vt 0.666667 1.000000
vt 0.666667 0.500000
vt 0.500000 1.000000
vt 0.500000 0.500000
vt 0.333333 1.000000
vt 0.333333 0.500000
vt 0.457846 0.370000
vt 0.250000 0.490000
vt 0.042154 0.370000
vt 0.042154 0.130000
vt 0.250000 0.010000
vt 0.457846 0.130000
vt 0.166667 1.000000
vt 0.166667 0.500000
vt -0.000000 1.000000
vt -0.000000 0.500000
vt 0.750000 0.490000
vt 0.957846 0.370000
vt 0.957846 0.130000
vt 0.750000 0.010000
vt 0.542154 0.130000
vt 0.542154 0.370000
vt 0.000000 1.000000
vt 1.000000 1.000000
vt 1.000000 1.000000
vt 0.000000 1.000000
vt 0.000000 1.000000
vt 1.000000 1.000000
vt 0.000000 1.000000
vt 1.000000 1.000000
vt 0.000000 1.000000
vt 1.000000 1.000000
vt 0.750000 0.490000
vt 0.957846 0.370000
vt 0.957846 0.130000
vt 0.750000 0.010000
vt 0.542154 0.130000
vt 0.542154 0.370000
vt 0.166667 0.500000
vt 0.166667 1.000000
vt -0.000000 1.000000
vt -0.000000 0.500000
vt 0.333333 0.500000
vt 0.333333 1.000000
vt 0.457846 0.370000
vt 0.250000 0.490000
vt 0.042154 0.370000
vt 0.042154 0.130000
vt 0.250000 0.010000
vt 0.457846 0.130000
vt 0.500000 0.500000
vt 0.500000 1.000000
vt 0.666667 0.500000
vt 0.666667 1.000000
vt 0.833333 0.500000
vt 0.833333 1.000000
vt 1.000000 0.500000
vt 1.000000 1.000000
vt 0.000000 1.000000
vt 1.000000 1.000000
vt 0.000000 1.000000
vt 1.000000 1.000000
vt 0.000000 1.000000
vt 1.000000 1.000000
vt 0.000000 1.000000
vt 1.000000 1.000000
vt 0.000000 0.000000
vt 1.000000 0.000000
vt 1.000000 1.000000
vt 0.000000 1.000000
vt 1.000000 1.000000
vt 0.000000 1.000000
vt 1.000000 1.000000
vt 0.000000 1.000000
vt 1.000000 1.000000
vt 0.000000 1.000000
vt 1.000000 1.000000
vt 0.000000 1.000000
vt 1.000000 1.000000
vt 0.000000 1.000000
vt 1.000000 1.000000
vt 0.000000 1.000000
vt 1.000000 1.000000
vt 0.000000 1.000000
vt 1.000000 1.000000
vt 0.000000 1.000000
vt 1.000000 1.000000
vt 0.000000 1.000000
vt 1.000000 1.000000
vt 0.000000 1.000000
vt 1.000000 1.000000
vt 0.000000 1.000000
vt 1.000000 1.000000
vt 0.000000 1.000000
vt 1.000000 1.000000
vt 0.000000 1.000000
vt 1.000000 1.000000
vt 0.000000 1.000000
vt 1.000000 1.000000
vt 0.000000 1.000000
vt 1.000000 1.000000
vt 0.000000 1.000000
vt 1.000000 1.000000
vt 0.000000 1.000000
vt 1.000000 1.000000
vt 0.000000 1.000000
vt 1.000000 1.000000
vt 0.000000 1.000000
vt 1.000000 1.000000
vt 0.000000 1.000000
vt 1.000000 1.000000
vt 0.000000 1.000000
vt 1.000000 1.000000
vt 0.000000 1.000000
vt 1.000000 1.000000
vt 0.000000 1.000000
vt 1.000000 1.000000
vt 0.000000 1.000000
vt 1.000000 1.000000
vt 0.000000 1.000000
vt 1.000000 1.000000
vt 0.000000 1.000000
vt 1.000000 1.000000
vt 0.000000 1.000000
vt 1.000000 1.000000
vt 0.000000 1.000000
vt 0.000000 1.000000
vt 1.000000 1.000000
vt 1.000000 1.000000
vt 0.000000 1.000000
vt 1.000000 1.000000
vt 0.000000 1.000000
vt 1.000000 1.000000
vt 0.000000 1.000000
vt 1.000000 1.000000
vt 0.000000 1.000000
vt 1.000000 1.000000
vt 0.000000 1.000000
vt 1.000000 1.000000
vt 0.000000 1.000000
vt 1.000000 1.000000
vt 0.000000 1.000000
vt 1.000000 1.000000
vt 0.000000 1.000000
vt 1.000000 1.000000
vt 0.000000 1.000000
vt 1.000000 1.000000
vt 0.000000 1.000000
vt 1.000000 1.000000
vt 0.000000 1.000000
vt 1.000000 1.000000
vt 0.000000 1.000000
vt 1.000000 1.000000
vt 0.000000 1.000000
vt 1.000000 1.000000
vt 0.000000 1.000000
vt 1.000000 1.000000
vt 0.000000 1.000000
vt 1.000000 1.000000
vt 0.000000 1.000000
vt 1.000000 1.000000
vt 0.000000 1.000000
vt 1.000000 1.000000
vt 0.000000 1.000000
vt 1.000000 1.000000
vt 0.000000 1.000000
vt 1.000000 1.000000
vt 0.000000 1.000000
vt 1.000000 1.000000
vt 0.000000 1.000000
vt 1.000000 1.000000
vt 0.000000 1.000000
vt 1.000000 1.000000
vt 0.000000 1.000000
vt 1.000000 1.000000
vt 0.000000 1.000000
vt 1.000000 1.000000
vt 0.000000 1.000000
vt 1.000000 1.000000
vt 0.000000 1.000000
vt 1.000000 1.000000
vt 0.000000 1.000000
vt 1.000000 1.000000
vt 0.000000 1.000000
vt 1.000000 1.000000
vt 0.000000 1.000000
vt 1.000000 1.000000
vt 0.000000 1.000000
vt 1.000000 1.000000
vt 0.000000 1.000000
vt 1.000000 1.000000
vt 0.000000 1.000000
vt 1.000000 1.000000
vt 0.000000 1.000000
vt 1.000000 1.000000
vt 0.000000 1.000000
vt 1.000000 1.000000
vt 0.000000 1.000000
vt 1.000000 1.000000
vt 0.000000 1.000000
vt 1.000000 1.000000
vt 0.000000 1.000000
vt 1.000000 1.000000
vt 0.000000 1.000000
vt 1.000000 1.000000
vt 0.000000 1.000000
vt 1.000000 1.000000
vt 0.000000 1.000000
vt 1.000000 1.000000
vt 0.000000 1.000000
vt 1.000000 1.000000
vt 0.000000 1.000000
vn -0.5000 0.0000 0.8660
vn -1.0000 0.0000 0.0000
vn -0.5000 0.0000 -0.8660
vn 0.5000 0.0000 -0.8660
vn 0.0000 1.0000 0.0000
vn 1.0000 0.0000 0.0000
vn 0.5000 0.0000 0.8660
vn 0.0000 -1.0000 0.0000
vn -0.4414 0.0000 0.8973
vn -0.9978 0.0000 0.0664
vn -0.5564 0.0000 -0.8309
vn 0.4414 0.0000 -0.8973
vn 0.9978 0.0000 -0.0664
vn 0.5564 0.0000 0.8309
vn 0.4076 0.0000 -0.9132
vn 0.9916 0.0000 -0.1293
vn 0.8379 0.0000 -0.5459
vn 0.9791 0.0000 0.2036
vn 0.9384 0.0000 -0.3455
vn 0.9947 0.0000 0.1030
vn 0.7959 0.0000 0.6055
vn 0.3725 0.0000 -0.9280
vn 0.9359 0.0000 0.3523
vn 0.9346 0.0000 0.3558
vn 0.9971 0.0000 -0.0755
vn 0.2033 0.0000 -0.9791
vn 0.9114 0.0000 0.4115
vn 0.5194 0.0000 -0.8545
vn 0.9050 0.0000 0.4253
vn 0.3650 0.0000 -0.9310
vn 0.8770 0.0000 0.4804
vn 0.9242 0.0000 -0.3818
vn -0.0727 0.0000 -0.9974
vn 0.9236 0.0000 -0.3832
vn 0.9815 0.0000 -0.1915
vn -0.0784 0.0000 -0.9969
vn 0.9995 0.0000 -0.0305
vn 0.6526 0.0000 -0.7577
vn 0.0438 0.0000 -0.9990
vn 0.9635 0.0000 -0.2678
vn 0.1707 0.0000 -0.9853
vn 0.9860 0.0000 0.1665
vn 0.2213 0.0000 -0.9752
vn 0.9979 0.0000 0.0646
vn 0.9093 0.0000 0.4162
vn 0.9824 0.0000 -0.1865
vn 0.1622 0.0000 -0.9868
vn 0.9984 0.0000 -0.0566
vn 0.7822 0.0000 0.6230
vn 0.9946 0.0000 0.1038
vn 0.8987 0.0000 -0.4386
vn 0.4836 0.0000 -0.8753
vn -0.8841 0.0000 -0.4673
vn -0.8059 0.0000 -0.5921
vn -0.4219 0.0000 0.9066
vn -0.9044 0.0000 -0.4268
vn -0.9965 0.0000 -0.0837
vn -0.8706 0.0000 0.4921
vn 0.0774 0.0000 0.9970
vn -0.9898 0.0000 0.1427
vn -0.9099 0.0000 0.4149
vn -0.3237 0.0000 0.9462
vn -0.9961 0.0000 -0.0886
vn -0.7837 0.0000 0.6211
vn -0.9995 0.0000 -0.0325
vn -0.8422 0.0000 0.5392
vn -0.2349 0.0000 0.9720
vn -0.9415 0.0000 -0.3370
vn -0.7564 0.0000 0.6541
vn -0.8497 0.0000 0.5272
vn -0.1841 0.0000 0.9829
vn -0.9920 0.0000 -0.1264
vn -0.9645 0.0000 0.2642
vn -0.3812 0.0000 0.9245
vn -0.5458 0.0000 0.8379
vn -0.9463 0.0000 -0.3233
vn -0.6062 0.0000 0.7953
vn -0.8087 0.0000 -0.5883
vn -0.5861 0.0000 0.8102
vn -0.8178 0.0000 0.5756
vn -0.7800 0.0000 -0.6258
vn -0.9993 0.0000 0.0385
vn -0.2290 0.0000 -0.9734
vn -0.9753 0.0000 0.2208
vn -0.8142 0.0000 0.5805
vn -0.9865 0.0000 0.1635
vn -0.5584 0.0000 -0.8296
vn -0.9849 0.0000 0.1734
vn -0.9048 0.0000 -0.4258
vn -0.9928 0.0000 0.1198
vn -0.1128 0.0000 0.9936
vn -0.9716 0.0000 -0.2366
vn -0.8681 0.0000 -0.4963
vn -0.8684 0.0000 0.4959
s off
f 1/1/1 2/2/1 4/3/1 3/4/1
f 3/4/2 4/3/2 6/5/2 5/6/2
f 5/6/3 6/5/3 8/7/3 7/8/3
f 7/8/4 8/7/4 10/9/4 9/10/4
f 4/11/5 2/12/5 12/13/5 10/14/5 8/15/5 6/16/5
f 9/10/6 10/9/6 12/17/6 11/18/6
f 11/18/7 12/17/7 2/19/7 1/20/7
f 1/21/8 3/22/8 5/23/8 7/24/8 9/25/8 11/26/8
f 13/27/1 14/28/1 16/29/1 15/30/1
f 15/30/2 16/29/2 18/31/2 17/32/2
f 17/32/3 18/31/3 20/33/3 19/34/3
f 19/34/4 20/33/4 22/35/4 21/36/4
f 16/37/5 14/38/5 24/39/5 22/40/5 20/41/5 18/42/5
f 21/36/6 22/35/6 24/43/6 23/44/6
f 23/44/7 24/43/7 14/45/7 13/46/7
f 13/47/8 15/48/8 17/49/8 19/50/8 21/51/8 23/52/8
f 25/53/9 26/54/9 28/55/9 27/56/9
f 27/56/10 28/55/10 30/57/10 29/58/10
f 29/58/11 30/57/11 32/59/11 31/60/11
f 31/60/12 32/59/12 34/61/12 33/62/12
f 28/63/5 26/64/5 36/65/5 34/66/5 32/67/5 30/68/5
f 33/62/13 34/61/13 36/69/13 35/70/13
f 35/70/14 36/69/14 26/71/14 25/72/14
f 25/73/8 27/74/8 29/75/8 31/76/8 33/77/8 35/78/8
f 37/79/1 38/80/1 40/81/1 39/82/1
f 39/82/2 40/81/2 42/83/2 41/84/2
f 41/84/3 42/83/3 44/85/3 43/86/3
f 43/86/4 44/85/4 46/87/4 45/88/4
f 40/89/5 38/90/5 48/91/5 46/92/5 44/93/5 42/94/5
f 45/88/6 46/87/6 48/95/6 47/96/6
f 47/96/7 48/95/7 38/97/7 37/98/7
f 37/99/8 39/100/8 41/101/8 43/102/8 45/103/8 47/104/8
f 49/105/1 50/106/1 52/107/1 51/108/1
f 51/108/2 52/107/2 54/109/2 53/110/2
f 53/110/3 54/109/3 56/111/3 55/112/3
f 55/112/4 56/111/4 58/113/4 57/114/4
f 52/115/5 50/116/5 60/117/5 58/118/5 56/119/5 54/120/5
f 57/114/6 58/113/6 60/121/6 59/122/6
f 59/122/7 60/121/7 50/123/7 49/124/7
f 49/125/8 51/126/8 53/127/8 55/128/8 57/129/8 59/130/8
f 63/131/15 64/132/15 61/133/15 62/134/15
f 66/135/16 65/136/16 64/132/16 63/131/16
f 67/137/17 68/138/17 65/136/17 66/135/17
f 82/139/18 81/140/18 68/138/18 67/137/18
f 80/141/8 78/142/8 76/143/8 74/144/8 72/145/8 70/146/8
f 70/147/7 69/148/7 79/149/7 80/150/7
f 72/151/6 71/152/6 69/148/6 70/147/6
f 77/153/5 79/154/5 69/155/5 71/156/5 73/157/5 75/158/5
f 74/159/4 73/160/4 71/152/4 72/151/4
f 76/161/3 75/162/3 73/160/3 74/159/3
f 78/163/2 77/164/2 75/162/2 76/161/2
f 80/165/1 79/166/1 77/164/1 78/163/1
f 83/167/19 84/168/19 81/140/19 82/139/19
f 86/169/20 85/170/20 84/168/20 83/167/20
f 87/171/21 88/172/21 85/170/21 86/169/21
f 90/173/22 89/174/22 88/172/22 87/171/22
f 92/175/23 91/176/23 89/174/23 90/173/23
f 62/134/24 61/133/24 93/177/24 94/178/24
f 94/178/25 93/177/25 95/179/25 96/180/25
f 96/180/26 95/179/26 97/181/26 98/182/26
f 98/182/27 97/181/27 99/183/27 100/184/27
f 100/184/28 99/183/28 101/185/28 102/186/28
f 102/186/29 101/185/29 103/187/29 104/188/29
f 104/188/30 103/187/30 105/189/30 106/190/30
f 106/190/31 105/189/31 107/191/31 108/192/31
f 108/192/32 107/191/32 109/193/32 110/194/32
f 110/194/33 109/193/33 111/195/33 112/196/33
f 112/196/34 111/195/34 113/197/34 114/198/34
f 114/198/35 113/197/35 115/199/35 116/200/35
f 116/200/36 115/199/36 117/201/36 118/202/36
f 118/202/37 117/201/37 119/203/37 120/204/37
f 120/204/38 119/203/38 121/205/38 122/206/38
f 122/206/39 121/205/39 123/207/39 124/208/39
f 124/208/40 123/207/40 125/209/40 126/210/40
f 126/210/41 125/209/41 127/211/41 128/212/41
f 128/212/42 127/211/42 129/213/42 130/214/42
f 130/214/43 129/213/43 131/215/43 132/216/43
f 132/216/44 131/215/44 133/217/44 134/218/44
f 134/218/45 133/217/45 135/219/45 136/220/45
f 136/220/46 135/219/46 137/221/46 138/222/46
f 138/222/47 137/221/47 139/223/47 140/224/47
f 140/224/48 139/223/48 141/225/48 142/226/48
f 142/226/49 141/225/49 143/227/49 144/228/49
f 144/228/50 143/227/50 145/229/50 146/230/50
f 146/230/51 145/229/51 147/231/51 148/232/51
f 148/232/52 147/231/52 149/233/52 150/234/52
f 152/235/53 151/236/53 153/237/53 154/238/53
f 154/238/54 153/237/54 155/239/54 156/240/54
f 156/240/55 155/239/55 157/241/55 158/242/55
f 158/242/56 157/241/56 159/243/56 160/244/56
f 160/244/57 159/243/57 161/245/57 162/246/57
f 162/246/58 161/245/58 163/247/58 164/248/58
f 164/248/59 163/247/59 165/249/59 166/250/59
f 166/250/60 165/249/60 167/251/60 168/252/60
f 168/252/61 167/251/61 169/253/61 170/254/61
f 170/254/62 169/253/62 171/255/62 172/256/62
f 172/256/63 171/255/63 173/257/63 174/258/63
f 174/258/64 173/257/64 175/259/64 176/260/64
f 176/260/65 175/259/65 177/261/65 178/262/65
f 178/262/66 177/261/66 179/263/66 180/264/66
f 180/264/67 179/263/67 181/265/67 182/266/67
f 182/266/68 181/265/68 183/267/68 184/268/68
f 184/268/69 183/267/69 185/269/69 186/270/69
f 186/270/70 185/269/70 187/271/70 188/272/70
f 188/272/71 187/271/71 189/273/71 190/274/71
f 190/274/72 189/273/72 191/275/72 192/276/72
f 192/276/73 191/275/73 193/277/73 194/278/73
f 194/278/74 193/277/74 195/279/74 196/280/74
f 196/280/75 195/279/75 197/281/75 198/282/75
f 198/282/76 197/281/76 199/283/76 200/284/76
f 200/284/77 199/283/77 201/285/77 202/286/77
f 202/286/78 201/285/78 203/287/78 204/288/78
f 204/288/79 203/287/79 205/289/79 206/290/79
f 206/290/80 205/289/80 207/291/80 208/292/80
f 208/292/81 207/291/81 209/293/81 210/294/81
f 210/294/82 209/293/82 211/295/82 212/296/82
f 212/296/83 211/295/83 213/297/83 214/298/83
f 214/298/84 213/297/84 215/299/84 216/300/84
f 216/300/85 215/299/85 217/301/85 218/302/85
f 218/302/86 217/301/86 219/303/86 220/304/86
f 220/304/87 219/303/87 221/305/87 222/306/87
f 222/306/88 221/305/88 223/307/88 224/308/88
f 224/308/89 223/307/89 225/309/89 226/310/89
f 226/310/90 225/309/90 227/311/90 228/312/90
f 228/312/91 227/311/91 229/313/91 230/314/91
f 230/314/92 229/313/92 231/315/92 232/316/92
f 232/316/93 231/315/93 233/317/93 234/318/93
f 234/318/94 233/317/94 235/319/94 236/320/94
