# Blender v2.80 (sub 75) OBJ File: ''
# www.blender.org
mtllib RoadTile_Curve_R_Down_ground.mtl
o Rocks_LowPoly1_Cube.002
v 149.999954 -30.000000 -122.727318
v 49.999989 -30.000103 -149.999954
v 37.680134 -30.000082 -122.727234
v 55.751072 0.000057 122.727234
v -50.010426 0.000092 150.000046
v 50.000011 0.000061 149.999969
v 62.748337 0.000061 95.454506
v -50.010426 0.000092 122.727318
v 69.399452 -1.692703 68.181778
v -50.010445 0.000092 95.454590
v 78.486023 -6.050493 40.909050
v -50.010460 -1.692671 68.181862
v -42.753616 -11.992620 13.636411
v -50.010464 -6.050463 40.909134
v 108.617325 -18.438494 -13.636400
v 93.649139 -11.992653 13.636328
v 126.226959 -24.307346 -40.909126
v -28.701967 -18.438461 -13.636317
v 141.195160 -28.518549 -68.181862
v -5.712711 -24.307320 -40.909046
v 149.999954 -30.000002 -95.454590
v 11.875345 -28.518517 -68.181778
v 24.410439 -30.000061 -95.454506
v 149.999939 -29.999998 -150.000031
v 104.914024 -22.547682 -30.237267
v 104.914024 -22.546221 -30.237267
v 116.714020 -19.151880 15.255878
v 116.714020 -19.151880 15.254727
v 108.070549 -19.451399 11.793508
v 108.068779 -19.451521 11.812490
v 41.960384 -0.347311 107.815842
v 41.960777 -0.346228 107.810287
v 104.649719 -22.542404 -30.139214
v 104.654213 -22.539604 -30.139153
vt 0.021870 0.095867
vt 0.406795 0.032071
vt 0.407082 0.095898
vt 0.021896 0.680187
vt 0.407154 0.744045
vt 0.021941 0.744014
vt 0.021851 0.616360
vt 0.407109 0.680218
vt 0.021827 0.551976
vt 0.407064 0.616391
vt 0.021837 0.486714
vt 0.407040 0.552007
vt 0.407080 0.420962
vt 0.407050 0.486745
vt 0.021904 0.354982
vt 0.021867 0.420931
vt 0.021933 0.289222
vt 0.407117 0.355012
vt 0.021941 0.224009
vt 0.407146 0.289253
vt 0.021915 0.159694
vt 0.407154 0.224040
vt 0.407128 0.159725
vt 0.021824 0.032040
vn -0.0000 1.0000 -0.0000
vn 0.0000 0.9994 -0.0358
vn 0.0000 0.9930 -0.1183
vn 0.0000 0.9995 -0.0310
vn 0.0000 0.9814 -0.1922
vn 0.0000 0.9939 -0.1100
vn 0.0000 0.9756 -0.2194
vn 0.0000 0.9831 -0.1830
vn 0.0000 0.9762 -0.2170
vn 0.0000 0.9746 -0.2242
vn 0.0000 0.9852 -0.1716
vn 0.0000 0.9746 -0.2241
vn 0.0000 0.9959 -0.0901
vn 0.0000 0.9813 -0.1927
vn -0.0000 0.9997 -0.0241
vn -0.0000 0.9930 -0.1185
vn -0.0000 0.9994 -0.0348
usemtl Road.003
s 1
f 1/1/1 2/2/1 3/3/1
f 4/4/1 5/5/1 6/6/1
f 7/7/2 8/8/1 4/4/1
f 9/9/3 10/10/4 7/7/2
f 11/11/5 12/12/6 9/9/3
f 11/11/5 13/13/7 14/14/8
f 15/15/9 13/13/7 16/16/10
f 17/17/11 18/18/12 15/15/9
f 19/19/13 20/20/14 17/17/11
f 21/21/15 22/22/16 19/19/13
f 1/1/1 23/23/17 21/21/15
f 1/1/1 24/24/1 2/2/1
f 4/4/1 8/8/1 5/5/1
f 7/7/2 10/10/4 8/8/1
f 9/9/3 12/12/6 10/10/4
f 11/11/5 14/14/8 12/12/6
f 11/11/5 16/16/10 13/13/7
f 15/15/9 18/18/12 13/13/7
f 17/17/11 20/20/14 18/18/12
f 19/19/13 22/22/16 20/20/14
f 21/21/15 23/23/17 22/22/16
f 1/1/1 3/3/1 23/23/17
