# Blender v2.82 (sub 7) OBJ File: ''
# www.blender.org
mtllib BoostItem.mtl
o Cube_Cube.001
v -0.200000 0.891084 0.038941
v -0.150010 0.365807 -0.017054
v -0.150010 0.309726 0.214723
v -0.200000 0.995511 -0.423434
v 0.150010 0.365807 -0.017054
v 0.200000 0.891084 0.038941
v 0.150010 0.309726 0.214723
v 0.200000 0.995511 -0.423434
v 0.137774 0.191905 0.012926
v -0.137774 0.112617 0.271166
v -0.137774 0.191905 0.012926
v -0.137774 0.251113 -0.248351
v -0.105715 -0.246282 0.195650
v 0.088011 -0.413542 0.267645
v 0.105715 -0.246282 0.195650
v -0.161066 0.461758 -0.382288
v -0.105715 -0.200611 0.017539
v 0.137774 0.251113 -0.248351
v 0.161066 0.461758 -0.382288
v -0.091700 -0.317591 0.019599
v -0.088011 -0.413542 0.267645
v 0.105715 -0.200611 0.017539
v 0.091700 -0.317591 0.019599
v 0.076343 -0.293425 -0.171237
v 0.105715 -0.099092 -0.288595
v -0.076343 -0.293425 -0.171237
v -0.105715 -0.099092 -0.288595
v -0.000173 -1.004489 0.246385
v -0.000173 -1.004489 0.246385
v 0.000173 -1.004489 0.246385
v 0.000173 -1.004489 0.246385
v 0.137774 0.112617 0.271166
vt 0.338748 0.119478
vt 0.401208 0.343640
vt 0.304377 0.384443
vt 0.749026 0.851461
vt 0.594651 0.522987
vt 0.726977 0.522987
vt 0.118876 0.656360
vt 0.056417 0.880522
vt 0.022045 0.615557
vt 0.749026 0.020981
vt 0.572603 0.131495
vt 0.572603 0.020981
vt 0.862628 0.842419
vt 0.951908 0.963223
vt 0.862628 0.963223
vt 0.510129 0.376885
vt 0.400692 0.421155
vt 0.293988 0.473848
vt 0.118360 0.578845
vt 0.878219 0.462301
vt 0.963663 0.382652
vt 0.971471 0.462301
vt 0.862814 0.694248
vt 0.956237 0.830628
vt 0.862814 0.825781
vt 0.427045 0.591774
vt 0.352815 0.624237
vt 0.227797 0.623115
vt 0.270676 0.724399
vt 0.434702 0.642865
vt 0.333688 0.702154
vt 0.726977 0.397497
vt 0.594651 0.397497
vt 0.144713 0.408226
vt 0.742486 0.870411
vt 0.663223 0.963055
vt 0.664850 0.870411
vt 0.070483 0.375763
vt 0.152370 0.357135
vt 0.233996 0.380593
vt 0.270676 0.473929
vt 0.761161 0.851459
vt 0.841459 0.751932
vt 0.854414 0.851459
vt 0.774116 0.751932
vt 0.807864 0.390461
vt 0.655664 0.963107
vt 0.568583 0.870414
vt 0.655664 0.870414
vt 0.516328 0.619407
vt 0.000000 0.000000
vt 0.000000 0.000000
vt 0.000000 0.000000
vt 0.000000 0.000000
vt 0.000000 0.000000
vt 0.915470 0.331341
vt 0.955991 0.014268
vt 0.996360 0.331341
vt 0.104198 0.041284
vt 0.773631 0.245032
vt 0.881024 0.015264
vt 0.895164 0.245032
vt 0.763358 0.354453
vt 0.905437 0.354453
vt 0.721580 0.487225
vt 0.600048 0.487225
vt 0.864079 0.670110
vt 0.985611 0.670110
vt 0.532442 0.041284
vt 0.572603 0.851461
vt 0.250110 0.958716
vt 0.749026 0.131495
vt 0.951908 0.842419
vt 0.553008 0.275601
vt 0.011656 0.526152
vt 0.886027 0.382652
vt 0.956237 0.689401
vt 0.744113 0.963055
vt 0.051356 0.297846
vt 0.807711 0.390461
vt 0.568583 0.963107
vt 0.553008 0.526071
vt 0.386530 0.958716
vt 0.955839 0.014268
vt 0.000000 0.000000
vt 0.787771 0.015264
vn -0.6418 0.5492 0.5352
vn -0.9815 0.0325 -0.1888
vn -0.7218 0.1505 0.6756
vn -0.5636 0.4692 -0.6799
vn 0.9815 0.0325 -0.1888
vn 0.6431 0.5473 0.5356
vn 0.7219 0.1505 0.6755
vn 0.5636 0.4692 -0.6799
vn 0.9602 -0.2372 0.1473
vn -0.5411 -0.6004 0.5888
vn -0.9603 -0.2371 0.1473
vn -0.6944 -0.4174 -0.5862
vn -0.7317 0.2028 0.6508
vn 0.5141 -0.6019 0.6111
vn 0.7324 0.2023 0.6501
vn -0.5664 0.4739 -0.6743
vn -0.9792 0.0033 -0.2031
vn 0.6941 -0.4176 -0.5864
vn 0.5903 0.4723 -0.6546
vn -0.9484 -0.3084 0.0738
vn -0.5198 -0.5925 0.6154
vn 0.9792 0.0032 -0.2031
vn 0.9484 -0.3084 0.0738
vn 0.6440 -0.4482 -0.6200
vn 0.5771 0.5028 -0.6436
vn -0.6439 -0.4482 -0.6200
vn -0.5771 0.5028 -0.6436
vn -0.1096 -0.4587 0.8818
vn 0.0000 0.1112 0.9938
vn 0.1096 -0.4587 0.8818
vn 0.5365 -0.6107 0.5824
usemtl Material.001
s 1
f 1/1/1 2/2/2 3/3/3
f 4/4/4 5/5/5 2/6/2
f 5/7/5 6/8/6 7/9/7
f 4/10/4 6/11/6 8/12/8
f 9/13/9 10/14/10 11/15/11
f 2/2/2 12/16/12 11/17/11
f 3/3/3 11/17/11 10/18/10
f 7/9/7 9/19/9 5/7/5
f 13/20/13 14/21/14 15/22/15
f 5/23/5 16/24/16 2/25/2
f 11/17/11 17/26/17 13/27/13
f 5/7/5 18/28/18 19/29/19
f 13/27/13 20/30/20 21/31/21
f 6/11/6 3/32/3 7/33/7
f 9/19/9 22/34/22 18/28/18
f 21/35/21 23/36/23 14/37/14
f 15/38/15 23/39/23 22/34/22
f 22/34/22 24/40/24 25/41/25
f 25/42/25 26/43/26 27/44/27
f 24/45/24 28/46/28 26/43/26
f 22/47/22 27/48/27 17/49/17
f 17/26/17 26/50/26 20/30/20
f 29/51/29 30/52/30 31/53/29
f 20/54/20 28/55/28 29/51/29
f 20/56/20 31/57/29 23/58/23
f 23/39/23 30/59/30 24/40/24
f 18/60/18 17/61/17 12/62/12
f 19/63/19 12/62/12 16/64/16
f 7/33/7 10/65/10 32/66/31
f 11/67/11 15/22/15 9/68/9
f 1/1/1 4/69/4 2/2/2
f 4/4/4 8/70/8 5/5/5
f 5/7/5 8/71/8 6/8/6
f 4/10/4 1/72/1 6/11/6
f 9/13/9 32/73/31 10/14/10
f 2/2/2 16/74/16 12/16/12
f 3/3/3 2/2/2 11/17/11
f 7/9/7 32/75/31 9/19/9
f 13/20/13 21/76/21 14/21/14
f 5/23/5 19/77/19 16/24/16
f 11/17/11 12/16/12 17/26/17
f 5/7/5 9/19/9 18/28/18
f 13/27/13 17/26/17 20/30/20
f 6/11/6 1/72/1 3/32/3
f 9/19/9 15/38/15 22/34/22
f 21/35/21 20/78/20 23/36/23
f 15/38/15 14/79/14 23/39/23
f 22/34/22 23/39/23 24/40/24
f 25/42/25 24/45/24 26/43/26
f 24/45/24 30/80/30 28/46/28
f 22/47/22 25/81/25 27/48/27
f 17/26/17 27/82/27 26/50/26
f 29/51/29 28/55/28 30/52/30
f 20/30/20 26/50/26 28/83/28
f 20/56/20 29/84/29 31/57/29
f 23/85/23 31/53/29 30/52/30
f 18/60/18 22/86/22 17/61/17
f 19/63/19 18/60/18 12/62/12
f 7/33/7 3/32/3 10/65/10
f 11/67/11 13/20/13 15/22/15
