# Blender v2.80 (sub 75) OBJ File: ''
# www.blender.org
mtllib 3.mtl
o Cube.005
v -2.000000 1.000000 1.000000
v -2.000000 1.000000 3.000000
v -4.000000 1.000000 3.000000
v -4.000000 1.000000 1.000000
v -4.000000 -1.000000 1.000000
v -4.000000 -1.000000 3.000000
v 2.000000 -1.000000 3.000000
v 2.000000 1.000000 3.000000
v 4.000000 1.000000 3.000000
v 4.000000 -1.000000 3.000000
v -2.000000 -1.000000 -1.000000
v -2.000000 -1.000000 -3.000000
v -4.000000 -1.000000 -3.000000
v -4.000000 -1.000000 -1.000000
v -2.000000 1.000000 -3.000000
v -4.000000 1.000000 -3.000000
v 4.000000 -1.000000 -1.000000
v 4.000000 1.000000 -1.000000
v 4.000000 1.000000 -3.000000
v 4.000000 -1.000000 -3.000000
v 4.000000 1.000000 1.000000
v 4.000000 -1.000000 1.000000
v -2.000000 -1.000000 3.000000
v -2.000000 -1.000000 1.000000
v -4.000000 1.000000 -1.000000
v -2.000000 1.000000 -1.000000
v 4.000000 3.000000 1.000000
v 4.000000 3.000000 -1.000000
v 2.000000 1.000000 -1.000000
v 2.000000 1.000000 1.000000
v 0.000000 1.000000 1.000000
v 0.000000 1.000000 -1.000000
v 2.000000 1.000000 -3.000000
v 0.000000 1.000000 -3.000000
v 2.000000 -1.000000 -1.000000
v 2.000000 -1.000000 1.000000
v 0.000000 -1.000000 -1.000000
v 0.000000 -1.000000 1.000000
v 0.000000 -1.000000 3.000000
v 2.000000 -1.000000 -3.000000
v 0.000000 -1.000000 -3.000000
v 0.000000 1.000000 3.000000
v 2.000000 3.000000 1.000000
v 2.000000 3.000000 -1.000000
vt 0.541667 0.187500
vt 0.541667 0.250000
vt 0.625000 0.250000
vt 0.625000 0.187500
vt 0.375000 0.416667
vt 0.375000 0.500000
vt 0.625000 0.500000
vt 0.625000 0.416667
vt 0.375000 0.687500
vt 0.375000 0.750000
vt 0.625000 0.750000
vt 0.625000 0.687500
vt 0.541667 0.937500
vt 0.541667 1.000000
vt 0.625000 1.000000
vt 0.625000 0.937500
vt 0.125000 0.687500
vt 0.125000 0.750000
vt 0.375000 0.750000
vt 0.375000 0.687500
vt 0.625000 0.666667
vt 0.625000 0.750000
vt 0.875000 0.750000
vt 0.875000 0.666667
vt 0.625000 0.500000
vt 0.625000 0.583333
vt 0.875000 0.583333
vt 0.875000 0.500000
vt 0.375000 0.937500
vt 0.375000 1.000000
vt 0.458333 1.000000
vt 0.458333 0.937500
vt 0.375000 0.250000
vt 0.375000 0.333333
vt 0.625000 0.333333
vt 0.625000 0.250000
vt 0.375000 0.187500
vt 0.375000 0.250000
vt 0.458333 0.250000
vt 0.458333 0.187500
vt 0.875000 0.666667
vt 0.875000 0.583333
vt 0.458333 0.062500
vt 0.458333 0.125000
vt 0.541667 0.125000
vt 0.541667 0.062500
vt 0.375000 0.000000
vt 0.375000 0.062500
vt 0.458333 0.000000
vt 0.375000 0.125000
vt 0.458333 0.750000
vt 0.458333 0.812500
vt 0.541667 0.812500
vt 0.541667 0.750000
vt 0.458333 0.875000
vt 0.541667 0.875000
vt 0.375000 0.812500
vt 0.375000 0.875000
vt 0.125000 0.500000
vt 0.125000 0.562500
vt 0.375000 0.562500
vt 0.375000 0.500000
vt 0.125000 0.625000
vt 0.375000 0.625000
vt 0.625000 0.812500
vt 0.625000 0.875000
vt 0.375000 0.562500
vt 0.625000 0.562500
vt 0.375000 0.625000
vt 0.625000 0.625000
vt 0.541667 0.000000
vt 0.625000 0.062500
vt 0.625000 0.000000
vt 0.625000 0.125000
vt 0.458333 0.000000
vt 0.458333 0.062500
vt 0.541667 0.062500
vt 0.541667 0.000000
vn 0.0000 1.0000 0.0000
vn -1.0000 0.0000 0.0000
vn 0.0000 -0.0000 1.0000
vn 0.0000 -1.0000 -0.0000
vn 0.0000 0.0000 -1.0000
vn 1.0000 -0.0000 0.0000
usemtl Material.005
s 1
f 1/1/1 4/2/1 3/3/1 2/4/1
f 5/5/2 6/6/2 3/7/2 4/8/2
f 7/9/3 10/10/3 9/11/3 8/12/3
f 11/13/4 14/14/4 13/15/4 12/16/4
f 12/17/5 13/18/5 16/19/5 15/20/5
f 17/21/6 20/22/6 19/23/6 18/24/6
f 10/25/6 22/26/6 21/27/6 9/28/6
f 22/26/6 17/21/6 18/24/6 21/27/6
f 23/29/4 6/30/4 5/31/4 24/32/4
f 24/32/4 5/31/4 14/14/4 11/13/4
f 13/33/2 14/34/2 25/35/2 16/36/2
f 14/34/2 5/5/2 4/8/2 25/35/2
f 15/37/1 16/38/1 25/39/1 26/40/1
f 26/40/1 25/39/1 4/2/1 1/1/1
f 18/24/6 28/41/6 27/42/6 21/27/6
f 29/43/1 32/44/1 31/45/1 30/46/1
f 32/44/1 26/40/1 1/1/1 31/45/1
f 19/47/1 33/48/1 29/43/1 18/49/1
f 33/48/1 34/50/1 32/44/1 29/43/1
f 34/50/1 15/37/1 26/40/1 32/44/1
f 22/51/4 36/52/4 35/53/4 17/54/4
f 36/52/4 38/55/4 37/56/4 35/53/4
f 38/55/4 24/32/4 11/13/4 37/56/4
f 10/10/4 7/57/4 36/52/4 22/51/4
f 7/57/4 39/58/4 38/55/4 36/52/4
f 39/58/4 23/29/4 24/32/4 38/55/4
f 20/59/5 40/60/5 33/61/5 19/62/5
f 40/60/5 41/63/5 34/64/5 33/61/5
f 41/63/5 12/17/5 15/20/5 34/64/5
f 17/54/4 35/53/4 40/65/4 20/22/4
f 35/53/4 37/56/4 41/66/4 40/65/4
f 37/56/4 11/13/4 12/16/4 41/66/4
f 6/6/3 23/67/3 2/68/3 3/7/3
f 23/67/3 39/69/3 42/70/3 2/68/3
f 39/69/3 7/9/3 8/12/3 42/70/3
f 21/71/1 30/46/1 8/72/1 9/73/1
f 30/46/1 31/45/1 42/74/1 8/72/1
f 31/45/1 1/1/1 2/4/1 42/74/1
f 28/75/1 44/76/1 43/77/1 27/78/1
f 30/46/2 43/77/2 44/76/2 29/43/2
f 29/43/5 44/76/5 28/75/5 18/49/5
f 21/71/3 27/78/3 43/77/3 30/46/3
