# Blender v2.80 (sub 75) OBJ File: ''
# www.blender.org
mtllib RoadTile_Curve_R_Down_ground.mtl
o Rocks_LowPoly1_Cube.004
v -49.999962 -0.000060 122.727310
v 50.000000 -0.000175 149.999969
v 62.319855 -0.000142 122.727242
v 44.248940 30.000114 -122.727203
v 150.010437 30.000166 -150.000031
v 50.000000 30.000135 -149.999969
v 37.251671 30.000107 -95.454475
v 150.010437 30.000149 -122.727280
v 30.600552 28.307331 -68.181747
v 150.010452 30.000137 -95.454552
v 21.513977 23.949524 -40.909039
v 150.010468 28.307364 -68.181824
v 142.753616 18.007385 -13.636390
v 150.010468 23.949554 -40.909111
v -8.617321 11.561501 13.636405
v 6.350864 18.007353 -13.636319
v -26.226959 5.692632 40.909122
v 128.701965 11.561532 13.636335
v -41.195152 1.481418 68.181854
v 105.712708 5.692660 40.909054
v -49.999969 -0.000049 95.454582
v 88.124649 1.481450 68.181786
v 75.589554 -0.000109 95.454514
v -49.999954 -0.000071 150.000031
v -4.649715 7.457580 30.139221
v -4.654213 7.460380 30.139160
v 58.039623 29.652740 -107.815811
v 58.039230 29.653824 -107.810257
v -8.070549 10.548607 -11.793503
v -8.068779 10.548485 -11.812485
v -16.714020 10.848128 -15.255875
v -16.714020 10.848128 -15.254724
v -4.914024 7.452304 30.237274
v -4.914024 7.453765 30.237274
vt 0.021870 0.095867
vt 0.406795 0.032071
vt 0.407082 0.095898
vt 0.021896 0.680187
vt 0.407154 0.744045
vt 0.021941 0.744014
vt 0.021851 0.616360
vt 0.407109 0.680218
vt 0.021827 0.551976
vt 0.407064 0.616391
vt 0.021837 0.486714
vt 0.407040 0.552007
vt 0.407080 0.420962
vt 0.407050 0.486745
vt 0.021904 0.354982
vt 0.021867 0.420931
vt 0.021933 0.289222
vt 0.407117 0.355012
vt 0.021941 0.224009
vt 0.407146 0.289253
vt 0.021915 0.159694
vt 0.407154 0.224040
vt 0.407128 0.159725
vt 0.021824 0.032040
vn 0.0000 1.0000 0.0000
vn -0.0000 0.9994 0.0358
vn -0.0000 0.9930 0.1183
vn -0.0000 0.9995 0.0310
vn -0.0000 0.9814 0.1922
vn -0.0000 0.9939 0.1100
vn -0.0000 0.9756 0.2194
vn -0.0000 0.9831 0.1830
vn -0.0000 0.9762 0.2170
vn -0.0000 0.9746 0.2242
vn -0.0000 0.9852 0.1716
vn -0.0000 0.9746 0.2241
vn -0.0000 0.9959 0.0901
vn -0.0000 0.9813 0.1927
vn 0.0000 0.9997 0.0241
vn 0.0000 0.9930 0.1185
vn 0.0000 0.9994 0.0348
usemtl Road.017
s 1
f 1/1/1 2/2/1 3/3/1
f 4/4/1 5/5/1 6/6/1
f 7/7/2 8/8/1 4/4/1
f 9/9/3 10/10/4 7/7/2
f 11/11/5 12/12/6 9/9/3
f 11/11/5 13/13/7 14/14/8
f 15/15/9 13/13/7 16/16/10
f 17/17/11 18/18/12 15/15/9
f 19/19/13 20/20/14 17/17/11
f 21/21/15 22/22/16 19/19/13
f 1/1/1 23/23/17 21/21/15
f 1/1/1 24/24/1 2/2/1
f 4/4/1 8/8/1 5/5/1
f 7/7/2 10/10/4 8/8/1
f 9/9/3 12/12/6 10/10/4
f 11/11/5 14/14/8 12/12/6
f 11/11/5 16/16/10 13/13/7
f 15/15/9 18/18/12 13/13/7
f 17/17/11 20/20/14 18/18/12
f 19/19/13 22/22/16 20/20/14
f 21/21/15 23/23/17 22/22/16
f 1/1/1 3/3/1 23/23/17
l 33 34
l 31 32
l 29 30
l 27 28
l 25 26
