# Blender v2.93.1 OBJ File: 'Roadhitbox.blend'
# www.blender.org
o Plane
v -71.219238 -0.218671 -17.386822
v -71.219238 3.207896 -17.386822
v -72.702988 -0.218671 -18.243467
v -72.702988 3.207896 -18.243467
v -72.702988 -0.218671 -19.956743
v -72.702988 3.207896 -19.956743
v -71.219238 -0.218671 -20.813391
v -71.219238 3.207896 -20.813391
v -69.735489 -0.218671 -19.956743
v -69.735489 3.207896 -19.956743
v -69.735489 -0.218671 -18.243467
v -69.735489 3.207896 -18.243467
v -78.233795 -1.670046 -53.196655
v -78.233795 3.449293 -53.196655
v -80.450539 -1.670046 -54.476494
v -80.450539 3.449293 -54.476494
v -80.450539 -1.670046 -57.036156
v -80.450539 3.449293 -57.036156
v -78.233795 -1.670046 -58.315998
v -78.233795 3.449293 -58.315998
v -76.017059 -1.670046 -57.036156
v -76.017059 3.449293 -57.036156
v -76.017059 -1.670046 -54.476494
v -76.017059 3.449293 -54.476494
v -60.438034 -0.764566 -53.765682
v -60.438034 6.616342 -53.765682
v -63.749470 -0.764566 -55.394745
v -63.749470 6.616342 -55.394745
v -63.994377 -0.764566 -59.077057
v -63.994377 6.616342 -59.077057
v -60.927860 -0.764566 -61.130333
v -60.927860 6.616342 -61.130333
v -57.616417 -0.764566 -59.501266
v -57.616417 6.616342 -59.501266
v -57.371506 -0.764566 -55.818954
v -57.371506 6.616342 -55.818954
v -117.551178 -1.493638 -14.053625
v -117.551178 7.003673 -14.053625
v -121.230629 -1.493638 -16.177940
v -121.230629 7.003673 -16.177940
v -121.230629 -1.493638 -20.426582
v -121.230629 7.003673 -20.426582
v -117.551178 -1.493638 -22.550926
v -117.551178 7.003673 -22.550926
v -113.871735 -1.493638 -20.426582
v -113.871735 7.003673 -20.426582
v -113.871735 -1.493638 -16.177940
v -113.871735 7.003673 -16.177940
v 9.970848 -0.908158 110.185440
v 9.970848 3.042464 110.185440
v 8.260180 -0.908158 109.197784
v 8.260180 3.042464 109.197784
v 8.260180 -0.908158 107.222473
v 8.260180 3.042464 107.222473
v 9.970848 -0.908158 106.234818
v 9.970848 3.042464 106.234818
v 11.681519 -0.908158 107.222473
v 11.681519 3.042464 107.222473
v 11.681519 -0.908158 109.197784
v 11.681519 3.042464 109.197784
v -56.397003 -2.121126 150.014236
v -56.397003 14.196974 150.014236
v -47.101177 14.196974 135.312195
v -47.101177 -2.121126 135.312195
v -47.032246 -2.121126 132.625504
v -47.032246 14.196974 132.625504
v -53.695858 14.196974 129.590973
v -53.695858 -2.121126 129.590973
v -52.837856 -2.121126 125.557335
v -52.837856 14.196974 125.557335
v -50.041752 14.196974 125.891914
v -50.041752 -2.121126 125.891914
v -48.992977 -2.121126 116.550941
v -48.992977 14.196974 116.550941
v -53.318199 14.196974 114.788788
v -53.318199 -2.121126 114.788788
v -53.384033 -2.121126 109.162483
v -53.384033 14.196974 109.162483
v -58.877583 14.196974 108.286598
v -58.877583 -2.121126 108.286598
v -57.494320 -2.121126 97.203659
v -57.494320 14.196974 97.203659
v -58.324986 14.196974 90.717400
v -58.324986 -2.121126 90.717400
v -61.187584 -2.121126 86.457520
v -61.187584 14.196974 86.457520
v -65.358276 14.196974 85.365334
v -65.358276 -2.121126 85.365334
v -73.100159 -2.121126 59.982468
v -73.100159 14.196974 59.982468
v -80.927742 14.196974 57.039795
v -80.927742 -2.121126 57.039795
v -80.114410 -2.121126 51.881527
v -80.114410 14.196974 51.881527
v -88.543770 14.196974 40.543812
v -88.543770 -2.121126 40.543812
v -95.145233 -2.121126 38.181099
v -95.145233 14.196974 38.181099
v -95.550293 14.196974 27.923981
v -95.550293 -2.121126 27.923981
v -113.597946 -2.121125 19.471531
v -113.597946 14.196974 19.471531
v -110.160095 14.196974 8.189423
v -110.160095 -2.121125 8.189423
v -124.681999 -2.121125 1.966907
v -124.681999 14.196974 1.966907
v -122.614471 14.196974 -9.623815
v -122.614471 -2.121125 -9.623815
v -133.585205 -2.121125 -21.284903
v -133.585205 14.196974 -21.284903
v -130.335190 14.196974 -31.700541
v -130.335190 -2.121125 -31.700541
v -130.885040 -2.121125 -36.792519
v -130.885040 14.196974 -36.792519
v -127.049332 14.196974 -39.034378
v -127.049332 -2.121125 -39.034378
v -132.814117 -2.121125 -55.890404
v -132.814117 14.196974 -55.890404
v -138.551285 14.196974 -61.074242
v -138.551285 -2.121125 -61.074242
v -138.740311 -2.121125 -68.505363
v -138.740311 14.196974 -68.505363
v -132.561859 14.196974 -73.372910
v -132.561859 -2.121125 -73.372910
v -132.805283 -2.121125 -79.354843
v -132.805283 14.196974 -79.354843
v -134.383453 14.196974 -84.578537
v -134.383453 -2.121125 -84.578537
v -136.009415 -2.121125 -85.781403
v -136.009415 14.196974 -85.781403
v -135.606918 14.196974 -92.585014
v -135.606918 -2.121125 -92.585014
v -138.034256 -2.121125 -93.491135
v -138.034256 14.196974 -93.491135
v -137.721161 14.196974 -96.145584
v -137.721161 -2.121125 -96.145584
v -134.568726 -2.121126 -97.148277
v -134.568726 14.196974 -97.148277
v -134.406647 14.196974 -105.995361
v -134.406647 -2.121126 -105.995361
v -136.376404 -2.121126 -107.284279
v -136.376404 14.196974 -107.284279
v -137.340012 14.196974 -120.021591
v -137.340012 -2.121126 -120.021591
v -140.378876 -2.121126 -120.509628
v -140.378876 14.196974 -120.509628
v -141.235825 14.196974 -127.661331
v -141.235825 -2.121126 -127.661331
v -141.388458 -2.121126 -150.284500
v -141.388458 14.196974 -150.284500
v -135.139160 -2.121126 -139.345291
v -135.139160 14.196974 -139.345291
v -50.497612 -1.558270 -150.364410
v -50.497612 18.223732 -150.364410
v -56.630383 18.223732 -134.171051
v -56.630383 -1.558270 -134.171051
v -50.009026 -1.558270 -129.999725
v -50.009026 18.223732 -129.999725
v -52.036297 18.223732 -123.342354
v -52.036297 -1.558270 -123.342354
v -55.249989 -1.558270 -122.369415
v -55.249989 18.223732 -122.369415
v -57.036396 18.223732 -107.225250
v -57.036396 -1.558270 -107.225250
v -53.720284 -1.558270 -94.987724
v -53.720284 18.223732 -94.987724
v -55.096947 18.223732 -85.646233
v -55.096947 -1.558270 -85.646233
v -50.024353 -1.558270 -62.646454
v -50.024353 18.223732 -62.646454
v -42.689072 18.223732 -59.441132
v -42.689072 -1.558270 -59.441132
v -46.534256 -1.558270 -41.672066
v -46.534256 18.223732 -41.672066
v -38.582672 18.223732 -38.422745
v -38.582672 -1.558270 -38.422745
v -41.691174 -1.558270 -28.226143
v -41.691174 18.223732 -28.226143
v -25.680727 18.223732 -17.302408
v -25.680727 -1.558270 -17.302408
v -28.228344 -1.558270 -8.696066
v -28.228344 18.223732 -8.696066
v -10.951385 18.223732 -1.215951
v -10.951385 -1.558270 -1.215951
v -12.482880 -1.558270 10.395830
v -12.482880 18.223732 10.395830
v -5.015295 18.223732 13.761158
v -5.015295 -1.558270 13.761158
v 8.221375 -1.558270 55.866493
v 8.221375 18.223732 55.866493
v 28.314188 18.223732 76.544937
v 28.314188 -1.558270 76.544937
v 29.171066 -1.558270 81.666664
v 29.171066 18.223732 81.666664
v 32.850178 18.223732 83.125534
v 32.850178 -1.558270 83.125534
v 32.000542 -1.558270 92.574097
v 32.000542 18.223732 92.574097
v 37.093765 18.223732 95.570183
v 37.093765 -1.558270 95.570183
v 34.138615 -1.558270 104.892868
v 34.138615 18.223732 104.892868
v 37.450329 18.223732 107.298698
v 37.450329 -1.558270 107.298698
v 37.547932 -1.558270 109.352058
v 37.547932 18.223732 109.352058
v 32.700325 18.223732 110.608238
v 32.700325 -1.558270 110.608238
v 34.434849 -1.558270 120.352615
v 34.434849 18.223732 120.352615
v 41.129852 18.223732 121.229584
v 41.129852 -1.558270 121.229584
v 41.100857 -1.558270 123.906090
v 41.100857 18.223732 123.906090
v 37.376579 18.223732 133.935150
v 37.376579 -1.558270 133.935150
v 38.613728 18.223732 149.890854
v 38.613728 -1.558270 149.890854
v 39.688240 -1.558270 136.476669
v 39.688240 18.223732 136.476669
v 33.697151 -1.558270 145.738373
v 33.697151 18.223732 145.738373
v -55.072380 3.207896 59.341839
v -55.072380 -0.218671 59.341839
v -55.072380 3.207896 57.628567
v -55.072380 -0.218671 57.628567
v -56.556129 3.207896 56.771915
v -56.556129 -0.218671 56.771915
v -58.039879 3.207896 57.628567
v -58.039879 -0.218671 57.628567
v -58.039879 3.207896 59.341839
v -58.039879 -0.218671 59.341839
v -56.556129 3.207896 60.198483
v -56.556129 -0.218671 60.198483
vt 1.000000 0.500000
vt 1.000000 1.000000
vt 0.833333 1.000000
vt 0.833333 0.500000
vt 0.666667 1.000000
vt 0.666667 0.500000
vt 0.500000 1.000000
vt 0.500000 0.500000
vt 0.333333 1.000000
vt 0.333333 0.500000
vt 0.457846 0.370000
vt 0.250000 0.490000
vt 0.042154 0.370000
vt 0.042154 0.130000
vt 0.250000 0.010000
vt 0.457846 0.130000
vt 0.166667 1.000000
vt 0.166667 0.500000
vt -0.000000 1.000000
vt -0.000000 0.500000
vt 0.750000 0.490000
vt 0.957846 0.370000
vt 0.957846 0.130000
vt 0.750000 0.010000
vt 0.542154 0.130000
vt 0.542154 0.370000
vt 1.000000 0.500000
vt 1.000000 1.000000
vt 0.833333 1.000000
vt 0.833333 0.500000
vt 0.666667 1.000000
vt 0.666667 0.500000
vt 0.500000 1.000000
vt 0.500000 0.500000
vt 0.333333 1.000000
vt 0.333333 0.500000
vt 0.457846 0.370000
vt 0.250000 0.490000
vt 0.042154 0.370000
vt 0.042154 0.130000
vt 0.250000 0.010000
vt 0.457846 0.130000
vt 0.166667 1.000000
vt 0.166667 0.500000
vt -0.000000 1.000000
vt -0.000000 0.500000
vt 0.750000 0.490000
vt 0.957846 0.370000
vt 0.957846 0.130000
vt 0.750000 0.010000
vt 0.542154 0.130000
vt 0.542154 0.370000
vt 1.000000 0.500000
vt 1.000000 1.000000
vt 0.833333 1.000000
vt 0.833333 0.500000
vt 0.666667 1.000000
vt 0.666667 0.500000
vt 0.500000 1.000000
vt 0.500000 0.500000
vt 0.333333 1.000000
vt 0.333333 0.500000
vt 0.457846 0.370000
vt 0.250000 0.490000
vt 0.042154 0.370000
vt 0.042154 0.130000
vt 0.250000 0.010000
vt 0.457846 0.130000
vt 0.166667 1.000000
vt 0.166667 0.500000
vt -0.000000 1.000000
vt -0.000000 0.500000
vt 0.750000 0.490000
vt 0.957846 0.370000
vt 0.957846 0.130000
vt 0.750000 0.010000
vt 0.542154 0.130000
vt 0.542154 0.370000
vt 1.000000 0.500000
vt 1.000000 1.000000
vt 0.833333 1.000000
vt 0.833333 0.500000
vt 0.666667 1.000000
vt 0.666667 0.500000
vt 0.500000 1.000000
vt 0.500000 0.500000
vt 0.333333 1.000000
vt 0.333333 0.500000
vt 0.457846 0.370000
vt 0.250000 0.490000
vt 0.042154 0.370000
vt 0.042154 0.130000
vt 0.250000 0.010000
vt 0.457846 0.130000
vt 0.166667 1.000000
vt 0.166667 0.500000
vt -0.000000 1.000000
vt -0.000000 0.500000
vt 0.750000 0.490000
vt 0.957846 0.370000
vt 0.957846 0.130000
vt 0.750000 0.010000
vt 0.542154 0.130000
vt 0.542154 0.370000
vt 1.000000 0.500000
vt 1.000000 1.000000
vt 0.833333 1.000000
vt 0.833333 0.500000
vt 0.666667 1.000000
vt 0.666667 0.500000
vt 0.500000 1.000000
vt 0.500000 0.500000
vt 0.333333 1.000000
vt 0.333333 0.500000
vt 0.457846 0.370000
vt 0.250000 0.490000
vt 0.042154 0.370000
vt 0.042154 0.130000
vt 0.250000 0.010000
vt 0.457846 0.130000
vt 0.166667 1.000000
vt 0.166667 0.500000
vt -0.000000 1.000000
vt -0.000000 0.500000
vt 0.750000 0.490000
vt 0.957846 0.370000
vt 0.957846 0.130000
vt 0.750000 0.010000
vt 0.542154 0.130000
vt 0.542154 0.370000
vt 1.000000 0.000000
vt 0.000000 0.000000
vt 0.000000 0.000000
vt 1.000000 0.000000
vt 1.000000 0.000000
vt 0.000000 0.000000
vt 1.000000 0.000000
vt 0.000000 0.000000
vt 1.000000 0.000000
vt 0.000000 0.000000
vt 1.000000 0.000000
vt 0.000000 0.000000
vt 1.000000 0.000000
vt 0.000000 0.000000
vt 1.000000 0.000000
vt 0.000000 0.000000
vt 1.000000 0.000000
vt 0.000000 0.000000
vt 1.000000 0.000000
vt 0.000000 0.000000
vt 1.000000 0.000000
vt 0.000000 0.000000
vt 1.000000 0.000000
vt 0.000000 0.000000
vt 1.000000 0.000000
vt 0.000000 0.000000
vt 1.000000 0.000000
vt 0.000000 0.000000
vt 1.000000 0.000000
vt 0.000000 0.000000
vt 1.000000 0.000000
vt 0.000000 0.000000
vt 1.000000 0.000000
vt 0.000000 0.000000
vt 1.000000 0.000000
vt 0.000000 0.000000
vt 1.000000 0.000000
vt 0.000000 0.000000
vt 1.000000 0.000000
vt 0.000000 0.000000
vt 1.000000 0.000000
vt 0.000000 0.000000
vt 1.000000 0.000000
vt 0.000000 0.000000
vt 1.000000 0.000000
vt 0.000000 0.000000
vt 1.000000 0.000000
vt 0.000000 0.000000
vt 1.000000 0.000000
vt 0.000000 0.000000
vt 1.000000 0.000000
vt 0.000000 0.000000
vt 1.000000 0.000000
vt 0.000000 0.000000
vt 1.000000 0.000000
vt 0.000000 0.000000
vt 1.000000 0.000000
vt 0.000000 0.000000
vt 1.000000 0.000000
vt 0.000000 0.000000
vt 1.000000 0.000000
vt 0.000000 0.000000
vt 1.000000 0.000000
vt 0.000000 0.000000
vt 1.000000 0.000000
vt 0.000000 0.000000
vt 1.000000 0.000000
vt 0.000000 0.000000
vt 1.000000 0.000000
vt 0.000000 0.000000
vt 1.000000 0.000000
vt 0.000000 0.000000
vt 1.000000 0.000000
vt 0.000000 0.000000
vt 1.000000 0.000000
vt 0.000000 0.000000
vt 1.000000 0.000000
vt 0.000000 0.000000
vt 1.000000 0.000000
vt 0.000000 0.000000
vt 1.000000 0.000000
vt 0.000000 0.000000
vt 1.000000 0.000000
vt 0.000000 0.000000
vt 1.000000 0.000000
vt 0.000000 0.000000
vt 1.000000 0.000000
vt 0.000000 0.000000
vt 1.000000 0.000000
vt 0.000000 0.000000
vt 1.000000 1.000000
vt 0.000000 1.000000
vt 1.000000 1.000000
vt 0.000000 1.000000
vt 0.000000 1.000000
vt 1.000000 1.000000
vt 1.000000 1.000000
vt 0.000000 1.000000
vt 1.000000 1.000000
vt 0.000000 1.000000
vt 1.000000 1.000000
vt 0.000000 1.000000
vt 1.000000 1.000000
vt 0.000000 1.000000
vt 1.000000 1.000000
vt 0.000000 1.000000
vt 1.000000 1.000000
vt 0.000000 1.000000
vt 1.000000 1.000000
vt 0.000000 1.000000
vt 1.000000 1.000000
vt 0.000000 1.000000
vt 1.000000 1.000000
vt 0.000000 1.000000
vt 1.000000 1.000000
vt 0.000000 1.000000
vt 1.000000 1.000000
vt 0.000000 1.000000
vt 1.000000 1.000000
vt 0.000000 1.000000
vt 1.000000 1.000000
vt 0.000000 1.000000
vt 1.000000 1.000000
vt 0.000000 1.000000
vt 1.000000 1.000000
vt 0.000000 1.000000
vt 1.000000 1.000000
vt 0.000000 1.000000
vt 1.000000 1.000000
vt 0.000000 1.000000
vt 1.000000 1.000000
vt 0.000000 1.000000
vt 1.000000 1.000000
vt 0.000000 1.000000
vt 0.000000 1.000000
vt 1.000000 1.000000
vt 0.000000 1.000000
vt 1.000000 1.000000
vt 0.000000 1.000000
vt 1.000000 1.000000
vt 0.000000 1.000000
vt 1.000000 1.000000
vt 0.000000 1.000000
vt 1.000000 1.000000
vt 0.000000 1.000000
vt 1.000000 1.000000
vt 0.000000 1.000000
vt 1.000000 1.000000
vt 0.000000 1.000000
vt 1.000000 1.000000
vt 0.000000 1.000000
vt 1.000000 1.000000
vt 0.000000 1.000000
vt 1.000000 1.000000
vt 0.000000 1.000000
vt 1.000000 1.000000
vt 0.000000 1.000000
vt 1.000000 1.000000
vt 1.000000 0.000000
vt 1.000000 0.000000
vt 0.000000 0.000000
vt 0.000000 0.000000
vt 0.750000 0.490000
vt 0.957846 0.370000
vt 0.957846 0.130000
vt 0.750000 0.010000
vt 0.542154 0.130000
vt 0.542154 0.370000
vt 0.166667 0.500000
vt 0.166667 1.000000
vt -0.000000 1.000000
vt -0.000000 0.500000
vt 0.333333 0.500000
vt 0.333333 1.000000
vt 0.457846 0.370000
vt 0.250000 0.490000
vt 0.042154 0.370000
vt 0.042154 0.130000
vt 0.250000 0.010000
vt 0.457846 0.130000
vt 0.500000 0.500000
vt 0.500000 1.000000
vt 0.666667 0.500000
vt 0.666667 1.000000
vt 0.833333 0.500000
vt 0.833333 1.000000
vt 1.000000 0.500000
vt 1.000000 1.000000
vn -0.5000 0.0000 0.8660
vn -1.0000 0.0000 0.0000
vn -0.5000 0.0000 -0.8660
vn 0.5000 0.0000 -0.8660
vn 0.0000 1.0000 0.0000
vn 1.0000 0.0000 0.0000
vn 0.5000 0.0000 0.8660
vn 0.0000 -1.0000 0.0000
vn -0.4414 0.0000 0.8973
vn -0.9978 0.0000 0.0664
vn -0.5564 0.0000 -0.8309
vn 0.4414 0.0000 -0.8973
vn 0.9978 0.0000 -0.0664
vn 0.5564 0.0000 0.8309
vn 0.8452 0.0000 0.5344
vn 0.9997 0.0000 0.0256
vn 0.4144 0.0000 -0.9101
vn 0.9781 0.0000 0.2081
vn -0.1188 0.0000 0.9929
vn 0.9938 0.0000 0.1116
vn 0.3773 0.0000 -0.9261
vn 0.9999 0.0000 -0.0117
vn 0.1575 0.0000 -0.9875
vn 0.9923 0.0000 0.1238
vn 0.9919 0.0000 -0.1270
vn 0.8300 0.0000 -0.5578
vn 0.2533 0.0000 -0.9674
vn 0.9565 0.0000 -0.2917
vn 0.3519 0.0000 -0.9360
vn 0.9878 0.0000 0.1558
vn 0.8025 0.0000 -0.5966
vn 0.3370 0.0000 -0.9415
vn 0.9992 0.0000 -0.0395
vn 0.4241 0.0000 -0.9056
vn 0.9566 0.0000 0.2915
vn 0.3939 0.0000 -0.9192
vn 0.9845 0.0000 0.1756
vn 0.7283 0.0000 -0.6852
vn 0.9546 0.0000 0.2979
vn 0.9942 0.0000 -0.1074
vn 0.5046 0.0000 0.8634
vn 0.9462 0.0000 -0.3236
vn 0.6704 0.0000 -0.7420
vn 0.9997 0.0000 -0.0254
vn 0.6188 0.0000 0.7855
vn 0.9992 0.0000 -0.0407
vn 0.9573 0.0000 -0.2892
vn 0.5947 0.0000 -0.8039
vn 0.9983 0.0000 0.0591
vn 0.3497 0.0000 -0.9369
vn 0.9931 0.0000 0.1171
vn 0.3031 0.0000 0.9530
vn 0.9998 0.0000 0.0183
vn 0.5475 0.0000 -0.8368
vn 0.9972 0.0000 -0.0754
vn 0.1586 0.0000 -0.9873
vn 0.9929 0.0000 -0.1190
vn 0.8866 0.0000 0.4626
vn 0.8683 0.0000 -0.4960
vn -0.9352 0.0000 -0.3542
vn -0.5330 0.0000 0.8461
vn -0.9566 0.0000 -0.2913
vn -0.2898 0.0000 -0.9571
vn -0.9931 0.0000 -0.1171
vn -0.9652 0.0000 0.2615
vn -0.9893 0.0000 -0.1458
vn -0.9765 0.0000 0.2154
vn -0.4004 0.0000 0.9163
vn -0.9774 0.0000 -0.2115
vn -0.3783 0.0000 0.9257
vn -0.9565 0.0000 -0.2916
vn -0.5636 0.0000 0.8260
vn -0.9589 0.0000 -0.2838
vn -0.3973 0.0000 0.9177
vn -0.9914 0.0000 -0.1308
vn -0.4109 0.0000 0.9117
vn -0.9540 0.0000 0.2999
vn -0.7172 0.0000 0.6969
vn -0.9863 0.0000 0.1650
vn -0.3686 0.0000 0.9296
vn -0.9960 0.0000 -0.0896
vn -0.5070 0.0000 0.8619
vn -0.9533 0.0000 -0.3022
vn -0.5877 0.0000 0.8090
vn -0.9989 0.0000 0.0475
vn -0.2508 0.0000 -0.9680
vn -0.9845 0.0000 0.1752
vn -0.1299 0.0000 0.9915
vn -0.9999 0.0000 -0.0108
vn -0.9374 0.0000 -0.3481
vn -0.7398 0.0000 0.6729
vn -0.6452 0.0000 0.7640
vn -0.8396 0.0000 -0.5431
s off
f 1/1/1 2/2/1 4/3/1 3/4/1
f 3/4/2 4/3/2 6/5/2 5/6/2
f 5/6/3 6/5/3 8/7/3 7/8/3
f 7/8/4 8/7/4 10/9/4 9/10/4
f 4/11/5 2/12/5 12/13/5 10/14/5 8/15/5 6/16/5
f 9/10/6 10/9/6 12/17/6 11/18/6
f 11/18/7 12/17/7 2/19/7 1/20/7
f 1/21/8 3/22/8 5/23/8 7/24/8 9/25/8 11/26/8
f 13/27/1 14/28/1 16/29/1 15/30/1
f 15/30/2 16/29/2 18/31/2 17/32/2
f 17/32/3 18/31/3 20/33/3 19/34/3
f 19/34/4 20/33/4 22/35/4 21/36/4
f 16/37/5 14/38/5 24/39/5 22/40/5 20/41/5 18/42/5
f 21/36/6 22/35/6 24/43/6 23/44/6
f 23/44/7 24/43/7 14/45/7 13/46/7
f 13/47/8 15/48/8 17/49/8 19/50/8 21/51/8 23/52/8
f 25/53/9 26/54/9 28/55/9 27/56/9
f 27/56/10 28/55/10 30/57/10 29/58/10
f 29/58/11 30/57/11 32/59/11 31/60/11
f 31/60/12 32/59/12 34/61/12 33/62/12
f 28/63/5 26/64/5 36/65/5 34/66/5 32/67/5 30/68/5
f 33/62/13 34/61/13 36/69/13 35/70/13
f 35/70/14 36/69/14 26/71/14 25/72/14
f 25/73/8 27/74/8 29/75/8 31/76/8 33/77/8 35/78/8
f 37/79/1 38/80/1 40/81/1 39/82/1
f 39/82/2 40/81/2 42/83/2 41/84/2
f 41/84/3 42/83/3 44/85/3 43/86/3
f 43/86/4 44/85/4 46/87/4 45/88/4
f 40/89/5 38/90/5 48/91/5 46/92/5 44/93/5 42/94/5
f 45/88/6 46/87/6 48/95/6 47/96/6
f 47/96/7 48/95/7 38/97/7 37/98/7
f 37/99/8 39/100/8 41/101/8 43/102/8 45/103/8 47/104/8
f 49/105/1 50/106/1 52/107/1 51/108/1
f 51/108/2 52/107/2 54/109/2 53/110/2
f 53/110/3 54/109/3 56/111/3 55/112/3
f 55/112/4 56/111/4 58/113/4 57/114/4
f 52/115/5 50/116/5 60/117/5 58/118/5 56/119/5 54/120/5
f 57/114/6 58/113/6 60/121/6 59/122/6
f 59/122/7 60/121/7 50/123/7 49/124/7
f 49/125/8 51/126/8 53/127/8 55/128/8 57/129/8 59/130/8
f 64/131/15 63/132/15 62/133/15 61/134/15
f 65/135/16 66/136/16 63/132/16 64/131/16
f 68/137/17 67/138/17 66/136/17 65/135/17
f 69/139/18 70/140/18 67/138/18 68/137/18
f 72/141/19 71/142/19 70/140/19 69/139/19
f 73/143/20 74/144/20 71/142/20 72/141/20
f 76/145/21 75/146/21 74/144/21 73/143/21
f 77/147/22 78/148/22 75/146/22 76/145/22
f 80/149/23 79/150/23 78/148/23 77/147/23
f 81/151/24 82/152/24 79/150/24 80/149/24
f 84/153/25 83/154/25 82/152/25 81/151/25
f 85/155/26 86/156/26 83/154/26 84/153/26
f 88/157/27 87/158/27 86/156/27 85/155/27
f 89/159/28 90/160/28 87/158/28 88/157/28
f 92/161/29 91/162/29 90/160/29 89/159/29
f 93/163/30 94/164/30 91/162/30 92/161/30
f 96/165/31 95/166/31 94/164/31 93/163/31
f 97/167/32 98/168/32 95/166/32 96/165/32
f 100/169/33 99/170/33 98/168/33 97/167/33
f 101/171/34 102/172/34 99/170/34 100/169/34
f 104/173/35 103/174/35 102/172/35 101/171/35
f 105/175/36 106/176/36 103/174/36 104/173/36
f 108/177/37 107/178/37 106/176/37 105/175/37
f 109/179/38 110/180/38 107/178/38 108/177/38
f 112/181/39 111/182/39 110/180/39 109/179/39
f 113/183/40 114/184/40 111/182/40 112/181/40
f 116/185/41 115/186/41 114/184/41 113/183/41
f 117/187/42 118/188/42 115/186/42 116/185/42
f 120/189/43 119/190/43 118/188/43 117/187/43
f 121/191/44 122/192/44 119/190/44 120/189/44
f 124/193/45 123/194/45 122/192/45 121/191/45
f 125/195/46 126/196/46 123/194/46 124/193/46
f 128/197/47 127/198/47 126/196/47 125/195/47
f 129/199/48 130/200/48 127/198/48 128/197/48
f 132/201/49 131/202/49 130/200/49 129/199/49
f 133/203/50 134/204/50 131/202/50 132/201/50
f 136/205/51 135/206/51 134/204/51 133/203/51
f 137/207/52 138/208/52 135/206/52 136/205/52
f 140/209/53 139/210/53 138/208/53 137/207/53
f 141/211/54 142/212/54 139/210/54 140/209/54
f 144/213/55 143/214/55 142/212/55 141/211/55
f 145/215/56 146/216/56 143/214/56 144/213/56
f 148/217/57 147/218/57 146/216/57 145/215/57
f 151/219/58 152/220/58 147/218/58 148/217/58
f 152/220/59 151/219/59 149/221/59 150/222/59
f 156/223/60 155/224/60 154/225/60 153/226/60
f 157/227/61 158/228/61 155/224/61 156/223/61
f 160/229/62 159/230/62 158/228/62 157/227/62
f 161/231/63 162/232/63 159/230/63 160/229/63
f 164/233/64 163/234/64 162/232/64 161/231/64
f 165/235/65 166/236/65 163/234/65 164/233/65
f 168/237/66 167/238/66 166/236/66 165/235/66
f 169/239/67 170/240/67 167/238/67 168/237/67
f 172/241/68 171/242/68 170/240/68 169/239/68
f 173/243/69 174/244/69 171/242/69 172/241/69
f 176/245/70 175/246/70 174/244/70 173/243/70
f 177/247/71 178/248/71 175/246/71 176/245/71
f 180/249/72 179/250/72 178/248/72 177/247/72
f 181/251/73 182/252/73 179/250/73 180/249/73
f 184/253/74 183/254/74 182/252/74 181/251/74
f 185/255/75 186/256/75 183/254/75 184/253/75
f 188/257/76 187/258/76 186/256/76 185/255/76
f 189/259/77 190/260/77 187/258/77 188/257/77
f 192/261/78 191/262/78 190/260/78 189/259/78
f 193/263/79 194/264/79 191/262/79 192/261/79
f 195/265/80 194/264/80 193/263/80 196/266/80
f 198/267/81 195/265/81 196/266/81 197/268/81
f 199/269/82 198/267/82 197/268/82 200/270/82
f 202/271/83 199/269/83 200/270/83 201/272/83
f 203/273/84 202/271/84 201/272/84 204/274/84
f 206/275/85 203/273/85 204/274/85 205/276/85
f 207/277/86 206/275/86 205/276/86 208/278/86
f 210/279/87 207/277/87 208/278/87 209/280/87
f 211/281/88 210/279/88 209/280/88 212/282/88
f 214/283/89 211/281/89 212/282/89 213/284/89
f 215/285/90 214/283/90 213/284/90 216/286/90
f 220/287/91 215/285/91 216/286/91 219/288/91
f 221/289/92 218/290/92 217/291/92 222/292/92
f 222/292/93 220/287/93 219/288/93 221/289/93
f 234/293/8 232/294/8 230/295/8 228/296/8 226/297/8 224/298/8
f 224/299/7 223/300/7 233/301/7 234/302/7
f 226/303/6 225/304/6 223/300/6 224/299/6
f 231/305/5 233/306/5 223/307/5 225/308/5 227/309/5 229/310/5
f 228/311/4 227/312/4 225/304/4 226/303/4
f 230/313/3 229/314/3 227/312/3 228/311/3
f 232/315/2 231/316/2 229/314/2 230/313/2
f 234/317/1 233/318/1 231/316/1 232/315/1
