# Blender v2.80 (sub 75) OBJ File: ''
# www.blender.org
mtllib perfabRoad3.mtl
o Cube.005
v 4.000000 1.000000 -1.000000
v 4.000000 1.000000 1.000000
v 4.000000 3.000000 -1.000000
v 4.000000 3.000000 1.000000
v 2.000000 1.000000 -1.000000
v 2.000000 1.000000 1.000000
v 2.000000 3.000000 -1.000000
v 2.000000 3.000000 1.000000
vt 0.875000 0.666667
vt 0.875000 0.666667
vt 0.875000 0.583333
vt 0.875000 0.583333
vt 0.541667 0.062500
vt 0.541667 0.062500
vt 0.458333 0.062500
vt 0.458333 0.062500
vt 0.458333 0.000000
vt 0.458333 0.000000
vt 0.541667 0.000000
vt 0.541667 0.000000
vn 1.0000 0.0000 0.0000
vn -1.0000 -0.0000 0.0000
vn 0.0000 0.0000 -1.0000
vn 0.0000 -0.0000 1.0000
usemtl Material.005
s 1
f 1/1/1 3/2/1 4/3/1 2/4/1
f 6/5/2 8/6/2 7/7/2 5/8/2
f 5/8/3 7/7/3 3/9/3 1/10/3
f 2/11/4 4/12/4 8/6/4 6/5/4
