# Blender v2.80 (sub 75) OBJ File: ''
# www.blender.org
mtllib perfabRoad1.mtl
o Cube.002
v -2.000000 1.000000 1.000000
v -2.000000 1.000000 -1.000000
v 0.000000 1.000000 -1.000000
v 0.000000 1.000000 1.000000
v -2.000000 3.000000 -1.000000
v 0.000000 3.000000 -1.000000
v -2.000000 3.000000 1.000000
v 0.000000 3.000000 1.000000
vt 0.458333 0.187500
vt 0.458333 0.187500
vt 0.458333 0.125000
vt 0.458333 0.125000
vt 0.541667 0.125000
vt 0.541667 0.125000
vt 0.541667 0.187500
vt 0.541667 0.187500
vn 0.0000 0.0000 -1.0000
vn 1.0000 0.0000 0.0000
vn 0.0000 -0.0000 1.0000
vn -1.0000 0.0000 0.0000
usemtl Material.002
s 1
f 2/1/1 5/2/1 6/3/1 3/4/1
f 3/4/2 6/3/2 8/5/2 4/6/2
f 4/6/3 8/5/3 7/7/3 1/8/3
f 1/8/4 7/7/4 5/2/4 2/1/4
