# Blender v2.80 (sub 75) OBJ File: ''
# www.blender.org
mtllib prefabRoad0.mtl
o Cube.001
v -2.000000 1.000000 1.000000
v -4.000000 1.000000 1.000000
v -4.000000 1.000000 -1.000000
v -2.000000 1.000000 -1.000000
v -2.000000 3.000000 1.000000
v -4.000000 3.000000 1.000000
v -2.000000 3.000000 -1.000000
v -4.000000 3.000000 -1.000000
vt 0.541667 0.187500
vt 0.541667 0.187500
vt 0.541667 0.250000
vt 0.541667 0.250000
vt 0.458333 0.187500
vt 0.458333 0.187500
vt 0.625000 0.416667
vt 0.625000 0.416667
vt 0.625000 0.333333
vt 0.625000 0.333333
vt 0.458333 0.250000
vt 0.458333 0.250000
vn 0.0000 -0.0000 1.0000
vn 1.0000 -0.0000 0.0000
vn -1.0000 0.0000 0.0000
vn 0.0000 0.0000 -1.0000
usemtl Material.001
s 1
f 1/1/1 5/2/1 6/3/1 2/4/1
f 4/5/2 7/6/2 5/2/2 1/1/2
f 2/7/3 6/8/3 8/9/3 3/10/3
f 3/11/4 8/12/4 7/6/4 4/5/4
