# Blender v2.80 (sub 75) OBJ File: ''
# www.blender.org
mtllib untitled.mtl
o Ground.002_Plane.002
v 33.331596 0.135843 -72.460129
v -33.123398 0.135835 72.102097
v 33.331604 0.135819 72.102097
v -33.123398 0.135859 -72.460129
v 33.331596 27.765343 -72.460129
v -33.123398 27.765335 72.102097
v 33.331604 27.765320 72.102097
v -33.123398 27.765358 -72.460129
vt 0.000000 1.000000
vt 1.000000 1.000000
vt 1.000000 1.000000
vt 0.000000 1.000000
vt 1.000000 0.000000
vt 0.000000 0.000000
vt 0.000000 0.000000
vt 1.000000 0.000000
vn 1.0000 0.0000 0.0000
vn -1.0000 0.0000 0.0000
usemtl Road.001
s 1
f 2/1/1 4/2/1 8/3/1 6/4/1
f 1/5/2 3/6/2 7/7/2 5/8/2
