# Blender v2.92.0 OBJ File: 'RoadTiles_exports.blend'
# www.blender.org
mtllib RoadTile_Curve_L_Down.mtl
o Ground.003_Plane.003
v -72.500000 30.143747 100.000000
v 72.500000 0.000000 100.000000
v -72.500000 30.143747 -100.000000
v 72.500000 0.000000 -100.000000
v -59.318180 28.877659 100.000000
v -46.136360 25.533840 100.000000
v -32.954544 20.793978 100.000000
v -19.772726 15.339741 100.000000
v -6.590907 9.852803 100.000000
v 6.590911 5.014850 100.000000
v 19.772728 1.507556 100.000000
v 32.954544 0.012596 100.000000
v 46.136364 0.000000 100.000000
v 59.318184 0.000000 100.000000
v 59.318180 0.000000 -100.000000
v 46.136360 0.000000 -100.000000
v 32.954544 0.012596 -100.000000
v 19.772726 1.507556 -100.000000
v 6.590907 5.014853 -100.000000
v -6.590911 9.852806 -100.000000
v -19.772728 15.339741 -100.000000
v -32.954544 20.793978 -100.000000
v -46.136364 25.533840 -100.000000
v -59.318184 28.877659 -100.000000
vt 0.090909 1.000000
vt 0.000000 1.000000
vt 0.000000 0.000000
vt 0.090909 0.000000
vt 1.000000 1.000000
vt 0.909091 1.000000
vt 0.909091 0.000000
vt 1.000000 0.000000
vt 0.818182 1.000000
vt 0.818182 0.000000
vt 0.727273 1.000000
vt 0.727273 0.000000
vt 0.636364 1.000000
vt 0.636364 0.000000
vt 0.545455 1.000000
vt 0.545455 0.000000
vt 0.454545 1.000000
vt 0.454545 0.000000
vt 0.363636 1.000000
vt 0.363636 0.000000
vt 0.272727 1.000000
vt 0.272727 0.000000
vt 0.181818 1.000000
vt 0.181818 0.000000
vn 0.0956 0.9954 0.0000
vn 0.0000 1.0000 0.0000
vn 0.0010 1.0000 -0.0000
vn 0.1127 0.9936 -0.0000
vn 0.2571 0.9664 0.0000
vn 0.3445 0.9388 0.0000
vn 0.3843 0.9232 0.0000
vn 0.3823 0.9240 -0.0000
vn 0.3384 0.9410 0.0000
vn 0.2459 0.9693 -0.0000
usemtl Road.001
s off
f 24/1/1 3/2/1 1/3/1 5/4/1
f 4/5/2 15/6/2 14/7/2 2/8/2
f 15/6/2 16/9/2 13/10/2 14/7/2
f 16/9/3 17/11/3 12/12/3 13/10/3
f 17/11/4 18/13/4 11/14/4 12/12/4
f 18/13/5 19/15/5 10/16/5 11/14/5
f 19/15/6 20/17/6 9/18/6 10/16/6
f 20/17/7 21/19/7 8/20/7 9/18/7
f 21/19/8 22/21/8 7/22/8 8/20/8
f 22/21/9 23/23/9 6/24/9 7/22/9
f 23/23/10 24/1/10 5/4/10 6/24/10
