# Blender v2.80 (sub 75) OBJ File: ''
# www.blender.org
mtllib RoadTile_Curve_R_Up_Ground_dummy.mtl
o Ground.003_Plane.008
v -49.999962 0.000020 122.727310
v 149.884521 -0.000079 149.999969
v 150.010529 -0.000062 122.727242
v -50.000038 30.000038 -122.727234
v 150.010437 30.000067 -150.000031
v -50.000046 30.000036 -149.999969
v -50.000031 30.000046 -95.454506
v 150.010437 30.000072 -122.727310
v -50.000023 28.307285 -68.181778
v 150.010452 30.000076 -95.454582
v -50.000015 23.949501 -40.909054
v 150.010468 28.307318 -68.181854
v 150.010468 18.007378 -13.636401
v 150.010468 23.949532 -40.909126
v -49.999992 11.561508 13.636397
v -50.000008 18.007345 -13.636331
v -49.999985 5.692659 40.909122
v 150.010498 11.561540 13.636327
v -49.999977 1.481462 68.181854
v 150.010498 5.692688 40.909054
v -49.999969 0.000015 95.454582
v 150.010498 1.481494 68.181786
v 150.010513 -0.000045 95.454514
v -49.999954 0.000025 150.000031
vt 0.090909 0.000000
vt 0.000000 1.000000
vt 0.090909 1.000000
vt 0.909091 0.000000
vt 1.000000 1.000000
vt 1.000000 0.000000
vt 0.818182 0.000000
vt 0.909091 1.000000
vt 0.727273 0.000000
vt 0.818182 1.000000
vt 0.636364 0.000000
vt 0.727273 1.000000
vt 0.545455 1.000000
vt 0.636364 1.000000
vt 0.454545 0.000000
vt 0.545455 0.000000
vt 0.363636 0.000000
vt 0.454545 1.000000
vt 0.272727 0.000000
vt 0.363636 1.000000
vt 0.181818 0.000000
vt 0.272727 1.000000
vt 0.181818 1.000000
vt 0.000000 0.000000
vn 0.0000 1.0000 -0.0000
vn -0.0000 0.9995 0.0310
vn -0.0000 0.9939 0.1100
vn -0.0000 0.9827 0.1854
vn -0.0000 0.9752 0.2215
vn -0.0000 0.9755 0.2202
vn -0.0000 0.9834 0.1816
vn -0.0000 0.9946 0.1035
vn 0.0000 0.9996 0.0271
usemtl ground.008
s 1
f 1/1/1 2/2/1 3/3/1
f 4/4/1 5/5/1 6/6/1
f 7/7/2 8/8/1 4/4/1
f 9/9/3 10/10/2 7/7/2
f 11/11/4 12/12/3 9/9/3
f 11/11/4 13/13/5 14/14/4
f 15/15/6 13/13/5 16/16/5
f 17/17/7 18/18/6 15/15/6
f 19/19/8 20/20/7 17/17/7
f 21/21/9 22/22/8 19/19/8
f 1/1/1 23/23/9 21/21/9
f 1/1/1 24/24/1 2/2/1
f 4/4/1 8/8/1 5/5/1
f 7/7/2 10/10/2 8/8/1
f 9/9/3 12/12/3 10/10/2
f 11/11/4 14/14/4 12/12/3
f 11/11/4 16/16/5 13/13/5
f 15/15/6 18/18/6 13/13/5
f 17/17/7 20/20/7 18/18/6
f 19/19/8 22/22/8 20/20/7
f 21/21/9 23/23/9 22/22/8
f 1/1/1 3/3/1 23/23/9
