# Blender v2.80 (sub 75) OBJ File: ''
# www.blender.org
mtllib RoadTile_Curve_R_Down_Ground_dummy.mtl
o Ground.003_Plane.007
v 150.000000 -29.999960 -122.727280
v -49.884476 -30.000055 -150.000000
v -50.010483 -30.000042 -122.727272
v 150.000000 0.000019 122.727280
v -50.010483 0.000042 150.000000
v 150.000000 0.000011 150.000000
v 150.000000 0.000031 95.454552
v -50.010483 0.000053 122.727287
v 150.000000 -1.692726 68.181824
v -50.010483 0.000061 95.454559
v 150.000000 -6.050505 40.909092
v -50.010483 -1.692694 68.181831
v -50.010483 -11.992624 13.636372
v -50.010483 -6.050474 40.909096
v 150.000000 -18.438490 -13.636363
v 150.000000 -11.992657 13.636366
v 150.000000 -24.307335 -40.909092
v -50.010483 -18.438457 -13.636357
v 150.000000 -28.518526 -68.181824
v -50.010483 -24.307306 -40.909088
v 150.000000 -29.999969 -95.454552
v -50.010483 -28.518496 -68.181816
v -50.010483 -30.000029 -95.454544
v 150.000000 -29.999950 -150.000000
vt 0.090909 0.000000
vt 0.000000 1.000000
vt 0.090909 1.000000
vt 0.909091 0.000000
vt 1.000000 1.000000
vt 1.000000 0.000000
vt 0.818182 0.000000
vt 0.909091 1.000000
vt 0.727273 0.000000
vt 0.818182 1.000000
vt 0.636364 0.000000
vt 0.727273 1.000000
vt 0.545455 1.000000
vt 0.636364 1.000000
vt 0.454545 0.000000
vt 0.545455 0.000000
vt 0.363636 0.000000
vt 0.454545 1.000000
vt 0.272727 0.000000
vt 0.363636 1.000000
vt 0.181818 0.000000
vt 0.272727 1.000000
vt 0.181818 1.000000
vt 0.000000 0.000000
vn -0.0000 1.0000 0.0000
vn 0.0000 0.9995 -0.0310
vn 0.0000 0.9939 -0.1100
vn 0.0000 0.9827 -0.1854
vn 0.0000 0.9752 -0.2215
vn 0.0000 0.9755 -0.2202
vn 0.0000 0.9834 -0.1816
vn 0.0000 0.9946 -0.1035
vn -0.0000 0.9996 -0.0271
usemtl ground.007
s 1
f 1/1/1 2/2/1 3/3/1
f 4/4/1 5/5/1 6/6/1
f 7/7/2 8/8/1 4/4/1
f 9/9/3 10/10/2 7/7/2
f 11/11/4 12/12/3 9/9/3
f 11/11/4 13/13/5 14/14/4
f 15/15/6 13/13/5 16/16/5
f 17/17/7 18/18/6 15/15/6
f 19/19/8 20/20/7 17/17/7
f 21/21/9 22/22/8 19/19/8
f 1/1/1 23/23/9 21/21/9
f 1/1/1 24/24/1 2/2/1
f 4/4/1 8/8/1 5/5/1
f 7/7/2 10/10/2 8/8/1
f 9/9/3 12/12/3 10/10/2
f 11/11/4 14/14/4 12/12/3
f 11/11/4 16/16/5 13/13/5
f 15/15/6 18/18/6 13/13/5
f 17/17/7 20/20/7 18/18/6
f 19/19/8 22/22/8 20/20/7
f 21/21/9 23/23/9 22/22/8
f 1/1/1 3/3/1 23/23/9
