# Blender v2.80 (sub 75) OBJ File: ''
# www.blender.org
mtllib RoadTile_Curve_L_Down_Ground.mtl
o Ground.003_Plane.011
v -150.020020 0.143724 72.500023
v 49.979965 -1.122362 59.318150
v -150.020035 -1.122360 59.318214
v -150.020081 -29.999981 -59.318157
v 49.979927 -29.999977 -72.500038
v -150.020081 -29.999977 -72.499992
v -150.020065 -29.999985 -46.136337
v 49.979927 -29.999981 -59.318222
v -150.020050 -29.987394 -32.954521
v 49.979935 -29.999985 -46.136402
v -150.020050 -28.492437 -19.772705
v 49.979942 -29.987392 -32.954582
v 49.979950 -24.985146 -6.590947
v 49.979942 -28.492435 -19.772764
v -150.020050 -20.147200 6.590933
v -150.020050 -24.985144 -6.590887
v -150.020050 -14.660265 19.772753
v 49.979942 -20.147200 6.590873
v 49.979958 -9.206035 32.954514
v 49.979950 -14.660265 19.772694
v -150.020035 -4.466174 46.136395
v -150.020050 -9.206033 32.954575
v 49.979965 -4.466176 46.136330
v 49.979973 0.143722 72.499977
vt 0.000000 1.000000
vt 0.090909 0.000000
vt 0.090909 1.000000
vt 0.909091 1.000000
vt 1.000000 0.000000
vt 1.000000 1.000000
vt 0.818182 1.000000
vt 0.909091 0.000000
vt 0.727273 1.000000
vt 0.818182 0.000000
vt 0.636364 1.000000
vt 0.727273 0.000000
vt 0.545455 0.000000
vt 0.636364 0.000000
vt 0.454545 1.000000
vt 0.545455 1.000000
vt 0.363636 1.000000
vt 0.454545 0.000000
vt 0.272727 0.000000
vt 0.363636 0.000000
vt 0.181818 1.000000
vt 0.272727 1.000000
vt 0.181818 0.000000
vt 0.000000 0.000000
vn -0.0000 0.9954 -0.0956
vn 0.0000 1.0000 0.0000
vn -0.0000 1.0000 -0.0005
vn -0.0000 1.0000 -0.0010
vn -0.0000 1.0000 -0.0007
vn -0.0000 0.9936 -0.1127
vn -0.0000 0.9664 -0.2571
vn -0.0000 0.9388 -0.3445
vn -0.0000 0.9232 -0.3843
vn -0.0000 0.9235 -0.3835
vn -0.0000 0.9240 -0.3823
vn -0.0000 0.9236 -0.3833
vn -0.0000 0.9410 -0.3384
vn -0.0000 0.9693 -0.2459
usemtl Road.022
s 1
f 1/1/1 2/2/1 3/3/1
f 4/4/2 5/5/2 6/6/2
f 7/7/3 8/8/2 4/4/2
f 9/9/4 10/10/5 7/7/3
f 11/11/6 12/12/6 9/9/6
f 11/11/7 13/13/7 14/14/7
f 15/15/8 13/13/8 16/16/8
f 17/17/9 18/18/9 15/15/9
f 17/17/10 19/19/11 20/20/12
f 21/21/13 19/19/13 22/22/13
f 3/3/14 23/23/14 21/21/14
f 1/1/1 24/24/1 2/2/1
f 4/4/2 8/8/2 5/5/2
f 7/7/3 10/10/5 8/8/2
f 9/9/4 12/12/4 10/10/4
f 11/11/6 14/14/6 12/12/6
f 11/11/7 16/16/7 13/13/7
f 15/15/8 18/18/8 13/13/8
f 17/17/10 20/20/12 18/18/9
f 17/17/10 22/22/11 19/19/11
f 21/21/13 23/23/13 19/19/13
f 3/3/14 2/2/14 23/23/14
