# Blender v2.80 (sub 75) OBJ File: ''
# www.blender.org
mtllib RoadTile_Curve_L_Up_Ground.mtl
o Ground.003_Plane.012
v 50.000000 30.143787 -72.499977
v -150.000000 28.877661 -59.318176
v 50.000000 28.877695 -59.318172
v 50.000000 -0.000004 59.318184
v -150.000000 -0.000040 72.499992
v 50.000000 -0.000008 72.500008
v 50.000000 0.000000 46.136364
v -150.000000 -0.000036 59.318180
v 50.000000 0.012602 32.954548
v -150.000000 -0.000032 46.136360
v 50.000000 1.507566 19.772730
v -150.000000 0.012570 32.954540
v -150.000000 5.014832 6.590909
v -150.000000 1.507534 19.772724
v 50.000000 9.852824 -6.590905
v 50.000000 5.014867 6.590913
v 50.000000 15.339763 -19.772720
v -150.000000 9.852789 -6.590908
v -150.000000 20.793972 -32.954540
v -150.000000 15.339730 -19.772726
v 50.000000 25.533873 -46.136353
v 50.000000 20.794006 -32.954533
v -150.000000 25.533838 -46.136356
v -150.000000 30.143753 -72.499992
vt 0.000000 1.000000
vt 0.090909 0.000000
vt 0.090909 1.000000
vt 0.909091 1.000000
vt 1.000000 0.000000
vt 1.000000 1.000000
vt 0.818182 1.000000
vt 0.909091 0.000000
vt 0.727273 1.000000
vt 0.818182 0.000000
vt 0.636364 1.000000
vt 0.727273 0.000000
vt 0.545455 0.000000
vt 0.636364 0.000000
vt 0.454545 1.000000
vt 0.545455 1.000000
vt 0.363636 1.000000
vt 0.454545 0.000000
vt 0.272727 0.000000
vt 0.363636 0.000000
vt 0.181818 1.000000
vt 0.272727 1.000000
vt 0.181818 0.000000
vt 0.000000 0.000000
vn -0.0000 0.9954 0.0956
vn -0.0000 1.0000 0.0000
vn -0.0000 1.0000 0.0005
vn -0.0000 1.0000 0.0010
vn -0.0000 1.0000 0.0007
vn -0.0000 0.9936 0.1127
vn -0.0000 0.9664 0.2571
vn -0.0000 0.9388 0.3445
vn -0.0000 0.9232 0.3843
vn -0.0000 0.9235 0.3836
vn -0.0000 0.9240 0.3823
vn -0.0000 0.9236 0.3833
vn -0.0000 0.9410 0.3384
vn -0.0000 0.9693 0.2459
usemtl Road.023
s 1
f 1/1/1 2/2/1 3/3/1
f 4/4/2 5/5/2 6/6/2
f 7/7/3 8/8/2 4/4/2
f 9/9/4 10/10/5 7/7/3
f 11/11/6 12/12/6 9/9/6
f 11/11/7 13/13/7 14/14/7
f 15/15/8 13/13/8 16/16/8
f 17/17/9 18/18/9 15/15/9
f 17/17/10 19/19/11 20/20/12
f 21/21/13 19/19/13 22/22/13
f 3/3/14 23/23/14 21/21/14
f 1/1/1 24/24/1 2/2/1
f 4/4/2 8/8/2 5/5/2
f 7/7/3 10/10/5 8/8/2
f 9/9/4 12/12/4 10/10/4
f 11/11/6 14/14/6 12/12/6
f 11/11/7 16/16/7 13/13/7
f 15/15/8 18/18/8 13/13/8
f 17/17/10 20/20/12 18/18/9
f 17/17/10 22/22/11 19/19/11
f 21/21/13 23/23/13 19/19/13
f 3/3/14 2/2/14 23/23/14
