# Blender v2.80 (sub 75) OBJ File: ''
# www.blender.org
mtllib RoadTile_Down_Ground_dummy.mtl
o Ground.003_Plane.004
v -50.000000 -29.999920 -122.727280
v 50.010498 -30.000002 -122.727272
v 49.884483 -30.000006 -150.000000
v -50.000000 -0.000019 122.727287
v -50.000000 -0.000038 150.000000
v 50.010498 -0.000008 150.000000
v -50.000000 0.000000 95.454559
v 50.010498 0.000015 122.727295
v -50.000000 -1.692749 68.181831
v 50.010498 0.000031 95.454567
v -50.000000 -6.050518 40.909096
v 50.010498 -1.692717 68.181839
v 50.010498 -6.050488 40.909100
v 50.010498 -11.992628 13.636373
v -50.000000 -18.438486 -13.636365
v -50.000000 -11.992661 13.636367
v -50.000000 -24.307320 -40.909092
v 50.010498 -18.438454 -13.636358
v -50.000000 -28.518503 -68.181824
v 50.010498 -24.307293 -40.909088
v -50.000000 -29.999937 -95.454552
v 50.010498 -28.518473 -68.181816
v 50.010498 -29.999998 -95.454544
v -50.000000 -29.999901 -150.000000
vt 0.090909 0.000000
vt 0.090909 1.000000
vt 0.000000 1.000000
vt 0.909091 0.000000
vt 1.000000 0.000000
vt 1.000000 1.000000
vt 0.818182 0.000000
vt 0.909091 1.000000
vt 0.727273 0.000000
vt 0.818182 1.000000
vt 0.636364 0.000000
vt 0.727273 1.000000
vt 0.636364 1.000000
vt 0.545455 1.000000
vt 0.454545 0.000000
vt 0.545455 0.000000
vt 0.363636 0.000000
vt 0.454545 1.000000
vt 0.272727 0.000000
vt 0.363636 1.000000
vt 0.181818 0.000000
vt 0.272727 1.000000
vt 0.181818 1.000000
vt 0.000000 0.000000
vn 0.0000 1.0000 0.0000
vn -0.0000 0.9995 -0.0310
vn -0.0000 0.9939 -0.1100
vn -0.0000 0.9827 -0.1854
vn -0.0000 0.9752 -0.2215
vn -0.0000 0.9755 -0.2202
vn -0.0000 0.9834 -0.1816
vn -0.0000 0.9946 -0.1035
vn 0.0000 0.9996 -0.0271
usemtl ground
s 1
f 1/1/1 2/2/1 3/3/1
f 4/4/1 5/5/1 6/6/1
f 7/7/2 4/4/1 8/8/1
f 9/9/3 7/7/2 10/10/2
f 11/11/4 9/9/3 12/12/3
f 11/11/4 13/13/4 14/14/5
f 15/15/6 16/16/5 14/14/5
f 17/17/7 15/15/6 18/18/6
f 19/19/8 17/17/7 20/20/7
f 21/21/9 19/19/8 22/22/8
f 1/1/1 21/21/9 23/23/9
f 1/1/1 3/3/1 24/24/1
f 4/4/1 6/6/1 8/8/1
f 7/7/2 8/8/1 10/10/2
f 9/9/3 10/10/2 12/12/3
f 11/11/4 12/12/3 13/13/4
f 11/11/4 14/14/5 16/16/5
f 15/15/6 14/14/5 18/18/6
f 17/17/7 18/18/6 20/20/7
f 19/19/8 20/20/7 22/22/8
f 21/21/9 22/22/8 23/23/9
f 1/1/1 23/23/9 2/2/1
