# Blender v2.80 (sub 75) OBJ File: ''
# www.blender.org
mtllib RoadTile_Curve_L_Down_Ground_dummy.mtl
o Ground.003_Plane.005
v -150.000031 -29.999981 -122.314552
v 50.010445 -30.000063 -122.314606
v 49.884430 -30.000078 -149.587341
v -149.999969 0.000038 123.140007
v -149.999954 0.000036 150.412720
v 50.010529 0.000067 150.412659
v -149.999969 0.000046 95.867279
v 50.010521 0.000072 123.139946
v -149.999969 -1.692715 68.594551
v 50.010513 0.000076 95.867218
v -149.999985 -6.050499 41.321819
v 50.010506 -1.692682 68.594490
v 50.010498 -6.050468 41.321754
v 50.010490 -11.992622 14.049030
v -150.000000 -18.438492 -13.223639
v -150.000000 -11.992655 14.049089
v -150.000015 -24.307341 -40.496365
v 50.010475 -18.438461 -13.223698
v -150.000031 -28.518538 -67.769096
v 50.010468 -24.307314 -40.496426
v -150.000031 -29.999985 -95.041824
v 50.010460 -28.518505 -67.769150
v 50.010452 -30.000044 -95.041878
v -150.000046 -29.999975 -149.587280
vt 0.090909 0.000000
vt 0.090909 1.000000
vt 0.000000 1.000000
vt 0.909091 0.000000
vt 1.000000 0.000000
vt 1.000000 1.000000
vt 0.818182 0.000000
vt 0.909091 1.000000
vt 0.727273 0.000000
vt 0.818182 1.000000
vt 0.636364 0.000000
vt 0.727273 1.000000
vt 0.636364 1.000000
vt 0.545455 1.000000
vt 0.454545 0.000000
vt 0.545455 0.000000
vt 0.363636 0.000000
vt 0.454545 1.000000
vt 0.272727 0.000000
vt 0.363636 1.000000
vt 0.181818 0.000000
vt 0.272727 1.000000
vt 0.181818 1.000000
vt 0.000000 0.000000
vn 0.0000 1.0000 0.0000
vn -0.0000 0.9995 -0.0310
vn -0.0000 0.9939 -0.1100
vn -0.0000 0.9827 -0.1854
vn -0.0000 0.9752 -0.2215
vn -0.0000 0.9755 -0.2202
vn -0.0000 0.9834 -0.1816
vn -0.0000 0.9946 -0.1035
vn 0.0000 0.9996 -0.0271
usemtl ground.005
s 1
f 1/1/1 2/2/1 3/3/1
f 4/4/1 5/5/1 6/6/1
f 7/7/2 4/4/1 8/8/1
f 9/9/3 7/7/2 10/10/2
f 11/11/4 9/9/3 12/12/3
f 11/11/4 13/13/4 14/14/5
f 15/15/6 16/16/5 14/14/5
f 17/17/7 15/15/6 18/18/6
f 19/19/8 17/17/7 20/20/7
f 21/21/9 19/19/8 22/22/8
f 1/1/1 21/21/9 23/23/9
f 1/1/1 3/3/1 24/24/1
f 4/4/1 6/6/1 8/8/1
f 7/7/2 8/8/1 10/10/2
f 9/9/3 10/10/2 12/12/3
f 11/11/4 12/12/3 13/13/4
f 11/11/4 14/14/5 16/16/5
f 15/15/6 14/14/5 18/18/6
f 17/17/7 18/18/6 20/20/7
f 19/19/8 20/20/7 22/22/8
f 21/21/9 22/22/8 23/23/9
f 1/1/1 23/23/9 2/2/1
