# Blender v2.80 (sub 75) OBJ File: ''
# www.blender.org
mtllib RoadTile_Up_Ground.mtl
o Ground.004_Plane.002
v 53.265251 0.135816 72.406204
v 53.265259 0.135821 59.045296
v -47.183693 0.135821 59.045265
v 53.265297 28.890642 -59.232880
v 53.265297 30.143770 -72.593781
v -47.183655 30.143770 -72.593811
v 53.265289 25.579519 -46.090858
v -47.183655 28.890642 -59.232910
v 53.265289 20.882843 -32.948837
v -47.183662 25.579519 -46.090893
v 53.265282 15.473128 -19.806818
v -47.183662 20.882845 -32.948872
v 53.265282 10.022961 -6.664798
v -47.183670 15.473130 -19.806856
v -47.183670 10.022961 -6.664835
v -47.183678 5.204950 6.477183
v 53.265266 1.691643 19.619238
v 53.265274 5.204950 6.477221
v 53.265266 0.155428 32.761257
v -47.183685 1.691643 19.619200
v 53.265259 0.135826 45.903278
v -47.183685 0.155429 32.761223
v -47.183693 0.135826 45.903244
v -47.183701 0.135816 72.406174
vt 1.000000 0.000000
vt 0.909091 0.000000
vt 0.909091 1.000000
vt 0.090909 0.000000
vt 0.000000 0.000000
vt 0.000000 1.000000
vt 0.181818 0.000000
vt 0.090909 1.000000
vt 0.272727 0.000000
vt 0.181818 1.000000
vt 0.363636 0.000000
vt 0.272727 1.000000
vt 0.454545 0.000000
vt 0.363636 1.000000
vt 0.454545 1.000000
vt 0.545455 1.000000
vt 0.636364 0.000000
vt 0.545455 0.000000
vt 0.727273 0.000000
vt 0.636364 1.000000
vt 0.818182 0.000000
vt 0.727273 1.000000
vt 0.818182 1.000000
vt 1.000000 1.000000
vn -0.0000 1.0000 0.0000
vn -0.0000 0.9956 0.0934
vn -0.0000 0.9697 0.2443
vn -0.0000 0.9417 0.3365
vn 0.0017 0.9240 0.3825
vn -0.0000 0.9247 0.3806
vn -0.0000 0.9237 0.3831
vn -0.0017 0.9245 0.3812
vn -0.0000 0.9389 0.3442
vn -0.0000 0.9661 0.2583
vn -0.0000 0.9932 0.1161
vn -0.0010 1.0000 0.0004
vn 0.0000 1.0000 0.0015
vn -0.0000 1.0000 0.0013
usemtl Road.003
s 1
f 1/1/1 2/2/1 3/3/1
f 4/4/2 5/5/2 6/6/2
f 7/7/3 4/4/3 8/8/3
f 9/9/4 7/7/4 10/10/4
f 11/11/5 9/9/6 12/12/6
f 13/13/7 11/11/5 14/14/8
f 13/13/9 15/15/9 16/16/9
f 17/17/10 18/18/10 16/16/10
f 19/19/11 17/17/11 20/20/11
f 21/21/12 19/19/13 22/22/13
f 2/2/1 21/21/12 23/23/14
f 1/1/1 3/3/1 24/24/1
f 4/4/2 6/6/2 8/8/2
f 7/7/3 8/8/3 10/10/3
f 9/9/4 10/10/4 12/12/4
f 11/11/5 12/12/6 14/14/8
f 13/13/7 14/14/8 15/15/7
f 13/13/9 16/16/9 18/18/9
f 17/17/10 16/16/10 20/20/10
f 19/19/11 20/20/11 22/22/11
f 21/21/12 22/22/13 23/23/14
f 2/2/1 23/23/14 3/3/1
