# Blender v2.80 (sub 75) OBJ File: ''
# www.blender.org
mtllib test.mtl
o Cube.001
v -4.000000 1.000000 1.000000
v -4.000000 1.000000 3.000000
v 2.000000 1.000000 3.000000
v 4.000000 1.000000 3.000000
v -2.000000 1.000000 -1.000000
v -2.000000 1.000000 -3.000000
v -4.000000 1.000000 -3.000000
v -4.000000 1.000000 -1.000000
v 4.000000 1.000000 -1.000000
v 4.000000 1.000000 -3.000000
v 4.000000 1.000000 1.000000
v -2.000000 1.000000 3.000000
v -2.000000 1.000000 1.000000
v 2.000000 1.000000 -1.000000
v 2.000000 1.000000 1.000000
v 0.000000 1.000000 -1.000000
v 0.000000 1.000000 1.000000
v 0.000000 1.000000 3.000000
v 2.000000 1.000000 -3.000000
v 0.000000 1.000000 -3.000000
vt 0.541667 0.937500
vt 0.625000 0.937500
vt 0.625000 1.000000
vt 0.541667 1.000000
vt 0.375000 0.937500
vt 0.458333 0.937500
vt 0.458333 1.000000
vt 0.375000 1.000000
vt 0.458333 0.750000
vt 0.541667 0.750000
vt 0.541667 0.812500
vt 0.458333 0.812500
vt 0.541667 0.875000
vt 0.458333 0.875000
vt 0.375000 0.750000
vt 0.375000 0.812500
vt 0.375000 0.875000
vt 0.625000 0.750000
vt 0.625000 0.812500
vt 0.625000 0.875000
vn 0.0000 1.0000 0.0000
usemtl Material.001
s 1
f 5/1/1 6/2/1 7/3/1 8/4/1
f 12/5/1 13/6/1 1/7/1 2/8/1
f 13/6/1 5/1/1 8/4/1 1/7/1
f 11/9/1 9/10/1 14/11/1 15/12/1
f 15/12/1 14/11/1 16/13/1 17/14/1
f 17/14/1 16/13/1 5/1/1 13/6/1
f 4/15/1 11/9/1 15/12/1 3/16/1
f 3/16/1 15/12/1 17/14/1 18/17/1
f 18/17/1 17/14/1 13/6/1 12/5/1
f 9/10/1 10/18/1 19/19/1 14/11/1
f 14/11/1 19/19/1 20/20/1 16/13/1
f 16/13/1 20/20/1 6/2/1 5/1/1
