# Blender v2.80 (sub 75) OBJ File: ''
# www.blender.org
mtllib RoadTile_Curve_R_Frontal.mtl
o Ground.003_Plane.002
v -49.911652 19.050621 71.721336
v 150.340378 0.135859 -72.840904
v 150.340378 19.050659 -72.840904
v -49.911652 0.135819 71.721336
v 50.214363 0.135875 -72.840897
v 50.214363 0.135803 71.721329
v 50.214363 19.050674 -72.840897
v 50.214363 19.050604 71.721329
v -33.141491 19.050632 39.803722
v -14.190140 19.050642 13.896447
v 10.163960 19.050652 -15.016002
v 60.896713 19.050663 -41.662186
v -33.141491 0.135830 39.803719
v -14.190140 0.135842 13.896444
v 10.163960 0.135853 -15.016005
v 60.896713 0.135864 -41.662189
v 130.315170 19.050650 -56.724422
v 107.165627 19.050638 -13.727967
v 62.747128 19.050627 13.896440
v 42.801548 17.244761 52.556976
v 130.315170 0.135848 -56.724426
v 107.165627 0.135837 -13.727970
v 62.747128 0.135826 13.896437
v 42.801548 -1.670040 52.556973
vt 0.000000 0.000000
vt 0.000000 0.000000
vt 0.000000 0.000000
vt 0.000000 0.000000
vt 0.000000 0.000000
vt 0.000000 0.000000
vt 0.000000 0.000000
vt 0.000000 0.000000
vt 0.000000 0.000000
vt 0.000000 0.000000
vt 0.000000 0.000000
vt 0.000000 0.000000
vt 0.000000 0.000000
vt 0.000000 0.000000
vt 0.000000 0.000000
vt 0.000000 0.000000
vt 0.000000 0.000000
vt 0.000000 0.000000
vt 0.000000 0.000000
vt 0.000000 0.000000
vt 0.000000 0.000000
vt 0.000000 0.000000
vt 0.000000 0.000000
vt 0.000000 0.000000
vn -0.8852 0.0000 -0.4651
vn 0.6270 0.0000 0.7790
vn -0.9460 -0.0000 0.3241
vn -0.4650 0.0000 -0.8853
vn -0.7648 0.0000 -0.6442
vn -0.8071 0.0000 -0.5904
vn 0.9327 0.0000 -0.3608
vn 0.8887 0.0000 0.4585
vn 0.5281 0.0000 0.8492
vn 0.8805 0.0000 0.4741
usemtl Road.003
s off
f 13/1/1 4/2/1 1/3/1 9/4/1
f 21/5/2 2/6/2 3/7/2 17/8/2
f 5/9/3 16/10/3 12/11/3 7/12/3
f 16/10/4 15/13/4 11/14/4 12/11/4
f 15/13/5 14/15/5 10/16/5 11/14/5
f 14/15/6 13/1/6 9/4/6 10/16/6
f 6/17/7 24/18/7 20/19/7 8/20/7
f 24/18/8 23/21/8 19/22/8 20/19/8
f 23/21/9 22/23/9 18/24/9 19/22/9
f 22/23/10 21/5/10 17/8/10 18/24/10
